{
  "title" : "",
  "description" : "",
  "author" : "",
  "width" : 1920.0,
  "height" : 1080.0,
  "version" : "0.5",
  "editRate" : 30,
  "authoringClientName" :  {
    "name" : "Camtasia Studio",
    "platform" : "Windows",
    "version" : "9.0"
  },
  "sourceBin" : [
    {
      "id" : 1,
      "src" : "C:\\Users\\Cong_minh\\Desktop\\newVideo\\newVideo\\options\\end.mp4",
      "rect" : [0, 0, 1920, 1080],
      "lastMod" : "20220531T030312",
      "sourceTracks" : [
        {
          "range" : [0, 40339998],
          "type" : 0,
          "editRate" : 10000000,
          "trackRect" : [0, 0, 1920, 1080],
          "sampleRate" : "2500000/83347",
          "bitDepth" : 24,
          "numChannels" : 0,
          "metaData" : ""
        }
      ]
    },
    {
      "id" : 2,
      "src" : "C:\\Users\\Cong_minh\\Desktop\\newVideo\\newVideo\\options\\SpringInMyStep-SlientPartner-4126819.mp3",
      "rect" : [0, 0, 0, 0],
      "lastMod" : "20220531T030312",
      "sourceTracks" : [
        {
          "range" : [0, 1191813750],
          "type" : 2,
          "editRate" : 10000000,
          "trackRect" : [0, 0, 0, 0],
          "sampleRate" : 44100,
          "bitDepth" : 0,
          "numChannels" : 2,
          "metaData" : ""
        }
      ]
    },
    {
      "id" : 3,
      "src" : "C:\\Users\\Cong_minh\\Desktop\\newVideo\\newVideo\\7. Quản lý sản phẩm\\chi_tiet_sp.mp4",
      "rect" : [0, 0, 1920, 1080],
      "lastMod" : "20220601T065907",
      "sourceTracks" : [
        {
          "range" : [0, 25339999],
          "type" : 0,
          "editRate" : 10000000,
          "trackRect" : [0, 0, 1920, 1080],
          "sampleRate" : "10000000/333421",
          "bitDepth" : 24,
          "numChannels" : 0,
          "metaData" : ""
        }
      ]
    },
    {
      "id" : 4,
      "src" : "C:\\Users\\Cong_minh\\Desktop\\newVideo\\newVideo\\7. Quản lý sản phẩm\\phan_loai_nhan_hang.mp4",
      "rect" : [0, 0, 1920, 1080],
      "lastMod" : "20220601T065742",
      "sourceTracks" : [
        {
          "range" : [0, 25339999],
          "type" : 0,
          "editRate" : 10000000,
          "trackRect" : [0, 0, 1920, 1080],
          "sampleRate" : "10000000/333421",
          "bitDepth" : 24,
          "numChannels" : 0,
          "metaData" : ""
        }
      ]
    },
    {
      "id" : 5,
      "src" : "C:\\Users\\Cong_minh\\Desktop\\newVideo\\newVideo\\7. Quản lý sản phẩm\\phan_loai_sp.mp4",
      "rect" : [0, 0, 1920, 1080],
      "lastMod" : "20220601T065826",
      "sourceTracks" : [
        {
          "range" : [0, 25339999],
          "type" : 0,
          "editRate" : 10000000,
          "trackRect" : [0, 0, 1920, 1080],
          "sampleRate" : "10000000/333421",
          "bitDepth" : 24,
          "numChannels" : 0,
          "metaData" : ""
        }
      ]
    },
    {
      "id" : 6,
      "src" : "C:\\Users\\Cong_minh\\Desktop\\newVideo\\newVideo\\7. Quản lý sản phẩm\\sp_file_excel.mp4",
      "rect" : [0, 0, 1920, 1080],
      "lastMod" : "20220601T070034",
      "sourceTracks" : [
        {
          "range" : [0, 25339999],
          "type" : 0,
          "editRate" : 10000000,
          "trackRect" : [0, 0, 1920, 1080],
          "sampleRate" : "10000000/333421",
          "bitDepth" : 24,
          "numChannels" : 0,
          "metaData" : ""
        }
      ]
    },
    {
      "id" : 7,
      "src" : "C:\\Users\\Cong_minh\\Desktop\\newVideo\\newVideo\\7. Quản lý sản phẩm\\start.mp4",
      "rect" : [0, 0, 1920, 1080],
      "lastMod" : "20220601T065613",
      "sourceTracks" : [
        {
          "range" : [0, 25339999],
          "type" : 0,
          "editRate" : 10000000,
          "trackRect" : [0, 0, 1920, 1080],
          "sampleRate" : "10000000/333421",
          "bitDepth" : 24,
          "numChannels" : 0,
          "metaData" : ""
        }
      ]
    },
    {
      "id" : 8,
      "src" : "C:\\Users\\Cong_minh\\Desktop\\newVideo\\newVideo\\7. Quản lý sản phẩm\\tao_combo.mp4",
      "rect" : [0, 0, 1920, 1080],
      "lastMod" : "20220601T065948",
      "sourceTracks" : [
        {
          "range" : [0, 25339999],
          "type" : 0,
          "editRate" : 10000000,
          "trackRect" : [0, 0, 1920, 1080],
          "sampleRate" : "10000000/333421",
          "bitDepth" : 24,
          "numChannels" : 0,
          "metaData" : ""
        }
      ]
    },
    {
      "id" : 9,
      "src" : "C:\\Users\\Cong_minh\\Desktop\\newVideo\\newVideo\\7. Quản lý sản phẩm\\VD_chi_tiet_sp.mp4",
      "rect" : [0, 0, 1920, 1080],
      "lastMod" : "20220601T050317",
      "sourceTracks" : [
        {
          "range" : [0, 2908995886],
          "type" : 0,
          "editRate" : 10000000,
          "trackRect" : [0, 0, 1920, 1080],
          "sampleRate" : "10000000/333333",
          "bitDepth" : 24,
          "numChannels" : 0,
          "metaData" : ""
        },
        {
          "range" : [0, 2908995886],
          "type" : 2,
          "editRate" : 10000000,
          "trackRect" : [0, 0, 0, 0],
          "sampleRate" : 44100,
          "bitDepth" : 16,
          "numChannels" : 2,
          "metaData" : ""
        }
      ]
    },
    {
      "id" : 10,
      "src" : "C:\\Users\\Cong_minh\\Desktop\\newVideo\\newVideo\\7. Quản lý sản phẩm\\VD_phan_loai_nhan_hang.mp4",
      "rect" : [0, 0, 1920, 1080],
      "lastMod" : "20220516T024702",
      "sourceTracks" : [
        {
          "range" : [0, 394971444],
          "type" : 0,
          "editRate" : 10000000,
          "trackRect" : [0, 0, 1920, 1080],
          "sampleRate" : "10000000/333333",
          "bitDepth" : 24,
          "numChannels" : 0,
          "metaData" : ""
        },
        {
          "range" : [0, 394971444],
          "type" : 2,
          "editRate" : 10000000,
          "trackRect" : [0, 0, 0, 0],
          "sampleRate" : 44100,
          "bitDepth" : 16,
          "numChannels" : 2,
          "metaData" : ""
        }
      ]
    },
    {
      "id" : 11,
      "src" : "C:\\Users\\Cong_minh\\Desktop\\newVideo\\newVideo\\7. Quản lý sản phẩm\\VD_phan_loai_sp.mp4",
      "rect" : [0, 0, 1920, 1080],
      "lastMod" : "20220601T045314",
      "sourceTracks" : [
        {
          "range" : [0, 517572776],
          "type" : 0,
          "editRate" : 10000000,
          "trackRect" : [0, 0, 1920, 1080],
          "sampleRate" : "10000000/333333",
          "bitDepth" : 24,
          "numChannels" : 0,
          "metaData" : ""
        },
        {
          "range" : [0, 517572776],
          "type" : 2,
          "editRate" : 10000000,
          "trackRect" : [0, 0, 0, 0],
          "sampleRate" : 44100,
          "bitDepth" : 16,
          "numChannels" : 2,
          "metaData" : ""
        }
      ]
    },
    {
      "id" : 12,
      "src" : "C:\\Users\\Cong_minh\\Desktop\\newVideo\\newVideo\\7. Quản lý sản phẩm\\VD_sp_excel.mp4",
      "rect" : [0, 0, 1920, 1080],
      "lastMod" : "20220516T094917",
      "sourceTracks" : [
        {
          "range" : [0, 2014331109],
          "type" : 0,
          "editRate" : 10000000,
          "trackRect" : [0, 0, 1920, 1080],
          "sampleRate" : "10000000/333333",
          "bitDepth" : 24,
          "numChannels" : 0,
          "metaData" : ""
        },
        {
          "range" : [0, 2014331109],
          "type" : 2,
          "editRate" : 10000000,
          "trackRect" : [0, 0, 0, 0],
          "sampleRate" : 44100,
          "bitDepth" : 16,
          "numChannels" : 2,
          "metaData" : ""
        }
      ]
    },
    {
      "id" : 13,
      "src" : "C:\\Users\\Cong_minh\\Desktop\\newVideo\\newVideo\\7. Quản lý sản phẩm\\VD_tao_combo.mp4",
      "rect" : [0, 0, 1920, 1080],
      "lastMod" : "20220516T033039",
      "sourceTracks" : [
        {
          "range" : [0, 1293119221],
          "type" : 0,
          "editRate" : 10000000,
          "trackRect" : [0, 0, 1920, 1080],
          "sampleRate" : "10000000/333333",
          "bitDepth" : 24,
          "numChannels" : 0,
          "metaData" : ""
        },
        {
          "range" : [0, 1293119221],
          "type" : 2,
          "editRate" : 10000000,
          "trackRect" : [0, 0, 0, 0],
          "sampleRate" : 44100,
          "bitDepth" : 16,
          "numChannels" : 2,
          "metaData" : ""
        }
      ]
    }
  ],
  "timeline" : {
    "id" : 14,
    "sceneTrack" : {
      "scenes" : [
        {
          "duration" : 731.866666666667,
          "title" : "",
          "type" : "",
          "csml" : {
            "tracks" : [
              {
                "trackIndex" : 0,
                "medias" : [
                  {
                    "id" : 15,
                    "_type" : "VMFile",
                    "src" : 7,
                    "trackNumber" : 0,
                    "attributes" : {
                      "ident" : "start"
                    },
                    "effects" : [

                    ],
                    "start" : 0,
                    "duration" : 75,
                    "mediaStart" : 0,
                    "mediaDuration" : 75,
                    "scalar" : 1,
                    "metadata" : {
                      "WinSubProjectDisplayName" : "",
                      "clipSpeedAttribute" : false
                    },
                    "animationTracks" : {

                    }
                  },
                  {
                    "id" : 16,
                    "_type" : "VMFile",
                    "src" : 4,
                    "trackNumber" : 0,
                    "attributes" : {
                      "ident" : "phan_loai_nhan_hang"
                    },
                    "effects" : [

                    ],
                    "start" : 75,
                    "duration" : 75,
                    "mediaStart" : 0,
                    "mediaDuration" : 75,
                    "scalar" : 1,
                    "metadata" : {
                      "WinSubProjectDisplayName" : "",
                      "clipSpeedAttribute" : false
                    },
                    "animationTracks" : {

                    }
                  },
                  {
                    "id" : 17,
                    "_type" : "UnifiedMedia",
                    "video" : 
                        {
                          "id" : 18,
                          "_type" : "VMFile",
                          "src" : 10,
                          "trackNumber" : 0,
                          "attributes" : {
                            "ident" : "VD_phan_loai_nhan_hang"
                          },
                          "effects" : [

                          ],
                          "start" : 150,
                          "duration" : 1185,
                          "mediaStart" : 0,
                          "mediaDuration" : 1185,
                          "scalar" : 1,
                          "animationTracks" : {

                          }
                        },
                    "audio" : 
                        {
                          "id" : 19,
                          "_type" : "AMFile",
                          "src" : 10,
                          "trackNumber" : 1,
                          "attributes" : {
                            "ident" : "",
                            "sampleRate" : 44100,
                            "bitDepth" : 16,
                            "gain" : 1.0,
                            "mixToMono" : false
                          },
                            "channelNumber" : "0,1",
                          "parameters" : {
                            "volume" : 2.09090909090908
                          },
                          "effects" : [
                              {
                                "effectName" : "NoiseReduction",
                                "category" : "categoryAudioEffects",
                                "parameters" : {
                                  "denoiserAmount" : 20.0,
                                  "denoiserThreshold" : 0.0,
                                  "noiseProfile" : "Oav7RSwmM0TJ4r1FLX26RDpBdUMEmBtD7BTjQmQIDURqTwdD2UiwQyIeBEQ1PbdDn02ZQpDwY0Lz\r\nQ1RDOohdQvJY1UI07YlC51RXQeYPB0F/lw1BL/6TQbbNGkKttQxCLivsQQRdpkDzoDRBAfAeQVwV\r\n20BZ/sFAZ6mRQLJAn0CnUYRAcAF2QFUOVEDXawJAzR5EQHcDHUDMzlJAmu4qQI1CdUBwNTdAryke\r\nQFk3HUAFLUVAwZ42QEb+Z0AOYoNALoQwQHRHEEAGuJNAlLZ3QAsOLkBnzH9AoCk/QAWdQkBQ+ClA\r\neeujQKjPs0Dr8R1AEfoxQO+cDUCXIzxAZ9fzQKTI6T8al9JA8z1+QL5nkz88vgdAqZI9QOuKXkAY\r\nMjlAgQ4aQGUBYkCgb5RAhhIvQPFdH0DGqTdABNJAQNrkJkBwGE1AoduHP+RNGUDf4uw/ZxYwQCoi\r\nl0CK/plAtZVHQChOyUCh/k1AV59gQMmtdUDUvCFAvG8qQEvknUAM7wNAO7+iQMoUv0D+MLI/IlvG\r\nQIAUcEAOTBhBGspWQGtCrUB2jfU/ehB8QHw9cECimAZA/yuSQE5aVEBIKPY/VA+AQKTdgkBSaxZA\r\neUS/QK7wl0AkUe9AQaEhQEOWJUDk/LxAhG7LQDLe+z8tao9AW/hVQAb+L0HMMh1ACnjAQHlA7kCZ\r\npTxAayjmQDszM0BkLglA8O4FQYUk00CLFmpANx0IQNCJhEBFPdRAJh4iQMIMa0AXk9VA203MP7B3\r\njz9PS+U/MG3QP6Bqiz8BTD8/8JNXQKKtD0F+GsRA1c4SQFF5H0DvhllAxUIxQLup2j/Xy6Q/INcv\r\nQFeK6T9DQ/Q/p4x4P5Ni7z8mvS8/z+69P2T4Xz8+5Pg/LER6Pyp2Qz+RPWs/tSNVP7vIhj9RkIo+\r\nETwvP1z4ED9antA+BDnbPowKzD9FrSNApUu0PxkV5T8va6k/fsNpP1NPlj+SyA4/goboPq7ZGj+6\r\n7VE+1w82P7LJLz9vYc0+SS6GP36GST8UBsY+2RYfPw/S3T5abLk+EDx0Pi5YwD70OXA+rty/Pp6o\r\nLT5T78g+oCU0Pr6Jdz65Bxk/ANJNPvn/2T1UMrg9JsaPPadU5z164hQ+tyQGPuh+Hj7EM909RMx9\r\nPiw9BD7SuaI9g5UBP9o9sj2ePMI99X/cPZv8mz2HuZo9VPulPURJLz3e/jo+RvXbPRAy8j1orAU+\r\ncnumPbKtnz7uI0I+TTHcPabAZD6G/Ng9ls+NPTgEGD6EJtM9xRBpPS3BDT44MFw96pXNPQo1Kj24\r\ncfU9TBfrPbepoz151Zo96FC8PXUPgD3XQfQ9LQDJPZXwJD59sNQ9MBq4PnG7Lj0ESMA9NBVKPazL\r\naT3XtWY9YREOPtpXaj0+C4o9DuEoPkrj3T3HIRc+U06hPfZHSD0AM4890ps1PfJBlj1Aq/g8zaEJ\r\nPYEjOT09dYY9xBTcPCKrpz3QH7s9BnVbPTSVuj3gaWY9PGYQPaKxwz0dnUE9nwSAPR9TFT25Q+I9\r\nh86EPfP3kD3IY9M9pRc/PVKMpz0IJb49sHHGPXCJij3ialg95KqvPcC/fz3UWNo9THMrPVbFXT46\r\n96U9th/SPdmCxD2kBs49xiTdPRcJQj6e74Y9NndePk/NoD0SpmI+jBRxPoghNj7CAYg+dOxUPb7r\r\n4D1Zjqo9m9LcPYgIYz7axNg+5saIPlrDdz5H+4c+oSFrPv4TsT7NAGc+v36WPkjcXz7fHW8+BmPl\r\nPsugND5ei74+eFVDPn6WQz1+pbs+fvkRPsv/oT3rmPM9Upd7PqANvzyGKoM+jQVcPlqEmj7e8kE+\r\nZiFiPmKpqD0IrTQ+dJ2fPaie8z3/yzM9rX3rPc84Sj7/M+w+GgfUPiBWIz4ggGY+K3eFPmAnfj59\r\nQ/I+mGUDPygCTz7eUOw99vZTPbvYdz5UywI+1NSbPtizmD4F3Ms+zv90PgInbD7g3cI9520fPvY6\r\niD02nwE+ogVCPbIb2T3bX/U9TmBePvu3+z0Z3nA+anVyPvJdxj7y0749qzhCPqBFYj72AKQ+SNSr\r\nPvpRyj04HIE9K5hlPc+9ZD29KEM+1UZPPkCaEj5I2oI9BhCuPTMGqT2Iw5U9xC36PY7P9T1t5JI9\r\n8NHUPRiAnz3vWr89lXJ8PiH0sD5h7e4+xt8SPrbb4D0WLy8+xxyDPY7a2T0NyTE9ynxFPVFNwj0f\r\ngiU+TU2BPbAwQD1/Vaw9FQilPeZCuD0cYQE9ixlUPrmT0z4AOqk+WTbHPk58eT5L3Ok+4i+NPX7B\r\nzj1MP6I+zuLfPQrodD59VxY+gPNlPhBlqD7vRM0+3Ds7PlHYoD4QGrk9MZlyPX+Z4j1yECc+tSSe\r\nPZBmWD4huyU+e9+lPrjFhz6kMpY+0GM/P45ZGj6vGqk+BmcGPsbiaz1p2N098p7LPbYJLT74DIk9\r\natRmPVA8dT78Y8E9lsTNPQtOgj0KFLM93QWyPvK0bD78xsY+AQthPmETxD6+7pQ+rz2EPonaOD45\r\n+6Y+NIZrPmpBNT04qfw9hLXKPoYDdj4FkPw+ZBAfPjV3hj3YRWk9n0wgPlXiAT5oVmE9UGKvPU4+\r\nHT14md88rUqsPboUgT3c1Gk9xFuqPUoHcD1gqxc+estzPi/QDT7TqZo9p8ORPUzXKj2+B+88Jyw6\r\nPTVUFz05YK88Ihp2PdHdaz0FQ7k9zW2SPWZc+D2tw9U99V6SPctnIj6w1Hc9jG0wPS5bLT0Ymgs9\r\nXBIhPSdsij3gYuo8wreOPdwpyjxtxzI9/uCQPSw86DwOHYE9JHLqPJaERD2wmw09/Pc8PGEZoD11\r\nTSk93IYfPcakWzzu1NI87mJIPSkPnjxd37M8W08sPQTN7TxoyWM9VTbEPCRyTD1OJg89q04UPcXb\r\ncD3aq4Y9gGPgPB6/9zyc48c8xGlJPbZ67Twc60U9GgsSPUQUKD05aJ48J9EYPWDSIj3IsIA9EO7m\r\nPI4PRj3srRc988EcPex/rDyjmvk8W+DlPKawGj2TFjQ90GbfPE1sDj1rdRk92m1rPSAkSD1MELY8\r\nSq47PevYAj1mnxs9bN7rPcaqhj22EjQ9KkK+PUKiGj3d2fI8yg4MPU6l+Tzpq9g8aN0uPSsCNjyU\r\nCBA9ONmwPBYihD22mYU8ugYoPZyr1jwnNrU8pPtyPToV2TybNpM8ECqIPb7RcjzUvpk9zxutPHFb\r\n3Tya/kc9gkH7PJZAhjwlk8w8AxonPd1jyzxcjlI92PbCPIhaVj2ts3E9wE32PJZPYT2oiFU9Zpyq\r\nPLJ7czwAMEo8o9ZbPNy1fjwMK3Y8xoj5PIGeYD3qxDg9BOdHPCyGqD18J7Y8wEenPA5MXDz04O88\r\n9bXEPDVzez34euQ8dZIkPdK8VTx4eGY8wZzqPNqm/zy8BtQ8A2YIPZH4uDzw1gQ8bNDcPGpOAT2A\r\nBZI8V+AWPZg35jyzTuU8j39/PduZKj3FRsM9O3R7PYOSgD1Aj389VvUxPKcIOTxS+I08cOsKPVJh\r\nkTyk0dg8vqeOPIkDOT2mUbM8rVu0PDSRej2HQIY9TA+oPKk4fTy1ggs9KLQkPSnyCD2flTw8eJ+C\r\nPGLt/DzWoZQ8Gxj7PDhm0jzTapQ8eCiePNlPpjzFIag8fraOPCItuTzdSJs8CHtMPR6hnDycDOg8\r\nrbLYPAdxMj2zbQs9jXilPG1cnTwmbzk9pqvyPbs/JD17IM49t2VhPYATpj2W0jU9qgNCPWFfrj0A\r\nEq08dlxqPH6D6TzAoEs8Yw/APHhaHz0e71k9YQ8cPXnEcj3p/J880z8GPDDQNzwyp1I8x7iRPETO\r\nkjzAw8U88+GXPEaGjz1hPZM9M+fVPNRRFT2OqLM85Lw8Pa1n2z1AHew95aIqPWpqvD0zLpU9jWmi\r\nPD+LDj2E2FU9Muz9PJYnHT2Kka88pUbROyI+4js61lU8+dDQO6JNzjvpYtA7cZ7QO7Nrzzt0h887\r\nVufMO56czjulQc87dpXKO2cjzjsorM07rNHOOxoFzjvqHMw7v3zLOzuZzztd3cs72/vLO6VmyjtV\r\n/cw7lwLLO7Cjyzs/SMo7AmXJO/CyyDvXg8s7sNDHOywyxzvelsk7I3bIO7yBxzs3Cso7chTHO7c/\r\nyDsQcsc7Fc3FO6VUyDu+lsc7WyTGO5pNxTt9bcU7sjbFO0XDxDvIpsU7Oo/FO0xuxTsMU8Q7Lk3D\r\nOwnPxTuaksQ7GKrBO6MTxDt4asE7LxbEO/JfwjsiAME7DqzCOxF+wju/qb47NKTCO4R3wTvAC8E7\r\nGAbDOwqavztqT787Lc6+O+gewDt1Mb87H3u/O9a3uzsdiLs7XJa+O1CNvjuYj7w7qV2+O4kTvTvU\r\nzLs7Rte7O4PuuztEXLw7IG+7O8EduzstmLg7NjC6O7fRuzu9obs7Uc26O/jStTtN57o72xi7O01e\r\ntzt/OLk7eTy5O6AwtztZF7k71Xm2O2jKtzsd4rU7wDi0O7sWtjtLUrk7qEa1Oxb9tDut6LQ7GSy1\r\nO7QjtTtNbrQ7mwi2OyFqtTt/yLU7Us24O6RStTt5WLM7sh+0O8wksjvyebE7j++yO5QVtDsgh7M7\r\n+dmzO8/StDvWs7I7VLeyO/USszueVLE72GazO42Zsjsqp7I73y6vO9/0rjuZmLI7NXexO4xNrzuF\r\nD7I7seGxO7JosjsJ9a07Sw6wO/BwsDvNHLA7ZHWyO0x2rztbsbI73OutO8KArjtp3Ks7tT2uO0MN\r\nsDuVk6w7ip+vO4lqrDtRNa07p6qtO9bQrju8Va07s4muO9rxqjsgqa07Q/esOw+NrDuu0qw7N16t\r\nOxoUrjv++aw7cdWqO4O+qztQoK07Bl2qO2GaqTureaw7KkqqO6XorTvaAKs7056qO1tmqztFeKo7\r\ndPioO15IrDuiQKo7OAmpO1epqjud7ak7XLSpO9Riqjv8tas7XuOqOwSUqDsNUKk7BVCpO8WxqTsF\r\nOaY7XB2pO1z6qTucJ6g7wCqpO02HpzudQqg7RleoO0plqDvHiqY7GOenO5z4pju2nKo7TsCoO9ki\r\nqTsggqs7DbWoO78DqjsJRKc7YfSnOwOjpjvOp6g7kDOlO6JQpjtH1qY7YEmnO6Z5pTsNRqg75Rem\r\nO7FTqjubwKU7eqGnO+POpTvRoqk7wf2mO6kYpzuwbaU7Ah6mOyTgpTscrKY7Z4KoO60ppjup2qY7\r\net2mOxlDpju5MKY7UZinO14Mpzsa/KY7q6SmOxqOpjsxbqY7wfGmO/6Hpzsr06Q7zkaoOxFxpTuL\r\nNqY7OHqnO/gqpjtg26Q7s2OmOx+7pTvYhKc7pNChO8SJpTstE6Y7ljOlOyLIpztfVqQ7P5mkO8qH\r\nozud26M7YCGlOxD7pTuVraY75rykO4obpTsm2qU7AsyiOzpzpDtU5aI76B+lO6k0pDtQbqQ7t8ij\r\nO2IQpjszHac7T9ejOyMupDuyTqI7rtGmO6tUozvS9aI7/i+mOw2jpTvLoaQ780OkO2L8ojs5q/tF\r\nLCYzRMnivUUtfbpEOkF1QwSYG0PsFONCZAgNRGpPB0PZSLBDIh4ERDU9t0OfTZlCkPBjQvNDVEM6\r\niF1C8ljVQjTtiULnVFdB5g8HQX+XDUEv/pNBts0aQq21DEIuK+xBBF2mQPOgNEEB8B5BXBXbQFn+\r\nwUBnqZFAskCfQKdRhEBwAXZAVQ5UQNdrAkDNHkRAdwMdQMzOUkCa7ipAjUJ1QHA1N0CvKR5AWTcd\r\nQAUtRUDBnjZARv5nQA5ig0AuhDBAdEcQQAa4k0CUtndACw4uQGfMf0CgKT9ABZ1CQFD4KUB566NA\r\nqM+zQOvxHUAR+jFA75wNQJcjPEBn1/NApMjpPxqX0kDzPX5AvmeTPzy+B0Cpkj1A64peQBgyOUCB\r\nDhpAZQFiQKBvlECGEi9A8V0fQMapN0AE0kBA2uQmQHAYTUCh24c/5E0ZQN/i7D9nFjBAKiKXQIr+\r\nmUC1lUdAKE7JQKH+TUBXn2BAya11QNS8IUC8bypAS+SdQAzvA0A7v6JAyhS/QP4wsj8iW8ZAgBRw\r\nQA5MGEEaylZAa0KtQHaN9T96EHxAfD1wQKKYBkD/K5JATlpUQEgo9j9UD4BApN2CQFJrFkB5RL9A\r\nrvCXQCRR70BBoSFAQ5YlQOT8vECEbstAMt77Py1qj0Bb+FVABv4vQcwyHUAKeMBAeUDuQJmlPEBr\r\nKOZAOzMzQGQuCUDw7gVBhSTTQIsWakA3HQhA0ImEQEU91EAmHiJAwgxrQBeT1UDbTcw/sHePP09L\r\n5T8wbdA/oGqLPwFMPz/wk1dAoq0PQX4axEDVzhJAUXkfQO+GWUDFQjFAu6naP9fLpD8g1y9AV4rp\r\nP0ND9D+njHg/k2LvPya9Lz/P7r0/ZPhfPz7k+D8sRHo/KnZDP5E9az+1I1U/u8iGP1GQij4RPC8/\r\nXPgQP1qe0D4EOds+jArMP0WtI0ClS7Q/GRXlPy9rqT9+w2k/U0+WP5LIDj+Chug+rtkaP7rtUT7X\r\nDzY/sskvP29hzT5JLoY/foZJPxQGxj7ZFh8/D9LdPlpsuT4QPHQ+LljAPvQ5cD6u3L8+nqgtPlPv\r\nyD6gJTQ+vol3PrkHGT8A0k0++f/ZPVQyuD0mxo89p1TnPXriFD63JAY+6H4ePsQz3T1EzH0+LD0E\r\nPtK5oj2DlQE/2j2yPZ48wj31f9w9m/ybPYe5mj1U+6U9REkvPd7+Oj5G9ds9EDLyPWisBT5ye6Y9\r\nsq2fPu4jQj5NMdw9psBkPob82D2Wz409OAQYPoQm0z3FEGk9LcENPjgwXD3qlc09CjUqPbhx9T1M\r\nF+s9t6mjPXnVmj3oULw9dQ+APddB9D0tAMk9lfAkPn2w1D0wGrg+cbsuPQRIwD00FUo9rMtpPde1\r\nZj1hEQ4+2ldqPT4Lij0O4Sg+SuPdPcchFz5TTqE99kdIPQAzjz3SmzU98kGWPUCr+DzNoQk9gSM5\r\nPT11hj3EFNw8IqunPdAfuz0GdVs9NJW6PeBpZj08ZhA9orHDPR2dQT2fBIA9H1MVPblD4j2HzoQ9\r\n8/eQPchj0z2lFz89UoynPQglvj2wccY9cImKPeJqWD3kqq89wL9/PdRY2j1Mcys9VsVdPjr3pT22\r\nH9I92YLEPaQGzj3GJN09FwlCPp7vhj02d14+T82gPRKmYj6MFHE+iCE2PsIBiD507FQ9vuvgPVmO\r\nqj2b0tw9iAhjPtrE2D7mxog+WsN3Pkf7hz6hIWs+/hOxPs0AZz6/fpY+SNxfPt8dbz4GY+U+y6A0\r\nPl6Lvj54VUM+fpZDPX6luz5++RE+y/+hPeuY8z1Sl3s+oA2/PIYqgz6NBVw+WoSaPt7yQT5mIWI+\r\nYqmoPQitND50nZ89qJ7zPf/LMz2tfes9zzhKPv8z7D4aB9Q+IFYjPiCAZj4rd4U+YCd+Pn1D8j6Y\r\nZQM/KAJPPt5Q7D329lM9u9h3PlTLAj7U1Js+2LOYPgXcyz7O/3Q+AidsPuDdwj3nbR8+9jqIPTaf\r\nAT6iBUI9shvZPdtf9T1OYF4++7f7PRnecD5qdXI+8l3GPvLTvj2rOEI+oEViPvYApD5I1Ks++lHK\r\nPTgcgT0rmGU9z71kPb0oQz7VRk8+QJoSPkjagj0GEK49MwapPYjDlT3ELfo9js/1PW3kkj3w0dQ9\r\nGICfPe9avz2Vcnw+IfSwPmHt7j7G3xI+ttvgPRYvLz7HHIM9jtrZPQ3JMT3KfEU9UU3CPR+CJT5N\r\nTYE9sDBAPX9VrD0VCKU95kK4PRxhAT2LGVQ+uZPTPgA6qT5ZNsc+Tnx5Pkvc6T7iL409fsHOPUw/\r\noj7O4t89Cuh0Pn1XFj6A82U+EGWoPu9EzT7cOzs+UdigPhAauT0xmXI9f5niPXIQJz61JJ49kGZY\r\nPiG7JT5736U+uMWHPqQylj7QYz8/jlkaPq8aqT4GZwY+xuJrPWnY3T3ynss9tgktPvgMiT1q1GY9\r\nUDx1PvxjwT2WxM09C06CPQoUsz3dBbI+8rRsPvzGxj4BC2E+YRPEPr7ulD6vPYQ+ido4Pjn7pj40\r\nhms+akE1PTip/D2Etco+hgN2PgWQ/D5kEB8+NXeGPdhFaT2fTCA+VeIBPmhWYT1QYq89Tj4dPXiZ\r\n3zytSqw9uhSBPdzUaT3EW6o9SgdwPWCrFz56y3M+L9ANPtOpmj2nw5E9TNcqPb4H7zwnLDo9NVQX\r\nPTlgrzwiGnY90d1rPQVDuT3NbZI9Zlz4Pa3D1T31XpI9y2ciPrDUdz2MbTA9LlstPRiaCz1cEiE9\r\nJ2yKPeBi6jzCt4493CnKPG3HMj3+4JA9LDzoPA4dgT0kcuo8loREPbCbDT389zw8YRmgPXVNKT3c\r\nhh89xqRbPO7U0jzuYkg9KQ+ePF3fszxbTyw9BM3tPGjJYz1VNsQ8JHJMPU4mDz2rThQ9xdtwPdqr\r\nhj2AY+A8Hr/3PJzjxzzEaUk9tnrtPBzrRT0aCxI9RBQoPTlonjwn0Rg9YNIiPciwgD0Q7uY8jg9G\r\nPeytFz3zwRw97H+sPKOa+Txb4OU8prAaPZMWND3QZt88TWwOPWt1GT3abWs9ICRIPUwQtjxKrjs9\r\n69gCPWafGz1s3us9xqqGPbYSND0qQr49QqIaPd3Z8jzKDgw9TqX5POmr2Dxo3S49KwI2PJQIED04\r\n2bA8FiKEPbaZhTy6Big9nKvWPCc2tTyk+3I9OhXZPJs2kzwQKog9vtFyPNS+mT3PG608cVvdPJr+\r\nRz2CQfs8lkCGPCWTzDwDGic93WPLPFyOUj3Y9sI8iFpWPa2zcT3ATfY8lk9hPaiIVT1mnKo8sntz\r\nPAAwSjyj1ls83LV+PAwrdjzGiPk8gZ5gPerEOD0E50c8LIaoPXwntjzAR6c8DkxcPPTg7zz1tcQ8\r\nNXN7Pfh65Dx1kiQ90rxVPHh4ZjzBnOo82qb/PLwG1DwDZgg9kfi4PPDWBDxs0Nw8ak4BPYAFkjxX\r\n4BY9mDfmPLNO5TyPf38925kqPcVGwz07dHs9g5KAPUCPfz1W9TE8pwg5PFL4jTxw6wo9UmGRPKTR\r\n2Dy+p448iQM5PaZRszytW7Q8NJF6PYdAhj1MD6g8qTh9PLWCCz0otCQ9KfIIPZ+VPDx4n4I8Yu38\r\nPNahlDwbGPs8OGbSPNNqlDx4KJ482U+mPMUhqDx+to48Ii25PN1ImzwIe0w9HqGcPJwM6Dytstg8\r\nB3EyPbNtCz2NeKU8bVydPCZvOT2mq/I9uz8kPXsgzj23ZWE9gBOmPZbSNT2qA0I9YV+uPQASrTx2\r\nXGo8foPpPMCgSzxjD8A8eFofPR7vWT1hDxw9ecRyPen8nzzTPwY8MNA3PDKnUjzHuJE8RM6SPMDD\r\nxTzz4Zc8RoaPPWE9kz0z59U81FEVPY6oszzkvDw9rWfbPUAd7D3loio9amq8PTMulT2NaaI8P4sO\r\nPYTYVT0y7P08licdPYqRrzylRtE7Ij7iOzrWVTz50NA7ok3OO+li0DtxntA7s2vPO3SHzztW58w7\r\nnpzOO6VBzzt2lco7ZyPOOyiszTus0c47GgXOO+oczDu/fMs7O5nPO13dyzvb+8s7pWbKO1X9zDuX\r\nAss7sKPLOz9IyjsCZck78LLIO9eDyzuw0Mc7LDLHO96WyTsjdsg7vIHHOzcKyjtyFMc7tz/IOxBy\r\nxzsVzcU7pVTIO76WxztbJMY7mk3FO31txTuyNsU7RcPEO8imxTs6j8U7TG7FOwxTxDsuTcM7Cc/F\r\nO5qSxDsYqsE7oxPEO3hqwTsvFsQ78l/COyIAwTsOrMI7EX7CO7+pvjs0pMI7hHfBO8ALwTsYBsM7\r\nCpq/O2pPvzstzr476B7AO3Uxvzsfe7871re7Ox2Iuztclr47UI2+O5iPvDupXb47iRO9O9TMuztG\r\n17s7g+67O0RcvDsgb7s7wR27Oy2YuDs2MLo7t9G7O72huztRzbo7+NK1O03nujvbGLs7TV63O384\r\nuTt5PLk7oDC3O1kXuTvVebY7aMq3Ox3itTvAOLQ7uxa2O0tSuTuoRrU7Fv20O63otDsZLLU7tCO1\r\nO01utDubCLY7IWq1O3/ItTtSzbg7pFK1O3lYszuyH7Q7zCSyO/J5sTuP77I7lBW0OyCHszv52bM7\r\nz9K0O9azsjtUt7I79RKzO55UsTvYZrM7jZmyOyqnsjvfLq873/SuO5mYsjs1d7E7jE2vO4UPsjux\r\n4bE7smiyOwn1rTtLDrA78HCwO80csDtkdbI7THavO1uxsjvc6607woCuO2ncqzu1Pa47Qw2wO5WT\r\nrDuKn687iWqsO1E1rTunqq071tCuO7xVrTuzia472vGqOyCprTtD96w7D42sO67SrDs3Xq07GhSu\r\nO/75rDtx1ao7g76rO1CgrTsGXao7YZqpO6t5rDsqSqo7peitO9oAqzvTnqo7W2arO0V4qjt0+Kg7\r\nXkisO6JAqjs4Cak7V6mqO53tqTtctKk71GKqO/y1qzte46o7BJSoOw1QqTsFUKk7xbGpOwU5pjtc\r\nHak7XPqpO5wnqDvAKqk7TYenO51CqDtGV6g7SmWoO8eKpjsY56c7nPimO7acqjtOwKg72SKpOyCC\r\nqzsNtag7vwOqOwlEpzth9Kc7A6OmO86nqDuQM6U7olCmO0fWpjtgSac7pnmlOw1GqDvlF6Y7sVOq\r\nO5vApTt6oac7486lO9GiqTvB/aY7qRinO7BtpTsCHqY7JOClOxyspjtngqg7rSmmO6napjt63aY7\r\nGUOmO7kwpjtRmKc7XgynOxr8pjurpKY7Go6mOzFupjvB8aY7/oenOyvTpDvORqg7EXGlO4s2pjs4\r\neqc7+CqmO2DbpDuzY6Y7H7ulO9iEpzuk0KE7xImlOy0TpjuWM6U7IsinO19WpDs/maQ7yoejO53b\r\noztgIaU7EPulO5WtpjvmvKQ7ihulOybapTsCzKI7OnOkO1TlojvoH6U7qTSkO1BupDu3yKM7YhCm\r\nOzMdpztP16M7Iy6kO7JOojuu0aY7q1SjO9L1ojv+L6Y7DaOlO8uhpDvzQ6Q7YvyiOw==",
                                  "noiseTrainingType" : "default"
                                },
                                "metadata" : {
                                  "effectIndex" : "0"
                                }
                              }
                          ],
                          "start" : 150,
                          "duration" : 1185,
                          "mediaStart" : 0,
                          "mediaDuration" : 1185,
                          "scalar" : 1,
                          "animationTracks" : {

                          }
                        }
,
                    "start" : 150,
                    "duration" : 1185,
                    "mediaStart" : 0,
                    "mediaDuration" : 1185,
                    "scalar" : 1,
                    "metadata" : {
                      "WinSubProjectDisplayName" : "",
                      "clipSpeedAttribute" : false
                    }
                  },
                  {
                    "id" : 20,
                    "_type" : "VMFile",
                    "src" : 5,
                    "trackNumber" : 0,
                    "attributes" : {
                      "ident" : "phan_loai_sp"
                    },
                    "effects" : [

                    ],
                    "start" : 1335,
                    "duration" : 75,
                    "mediaStart" : 0,
                    "mediaDuration" : 75,
                    "scalar" : 1,
                    "metadata" : {
                      "WinSubProjectDisplayName" : "",
                      "clipSpeedAttribute" : false
                    },
                    "animationTracks" : {

                    }
                  },
                  {
                    "id" : 21,
                    "_type" : "UnifiedMedia",
                    "video" : 
                        {
                          "id" : 22,
                          "_type" : "VMFile",
                          "src" : 11,
                          "trackNumber" : 0,
                          "attributes" : {
                            "ident" : "VD_phan_loai_sp"
                          },
                          "effects" : [

                          ],
                          "start" : 1410,
                          "duration" : 1553,
                          "mediaStart" : 0,
                          "mediaDuration" : 1553,
                          "scalar" : 1,
                          "animationTracks" : {

                          }
                        },
                    "audio" : 
                        {
                          "id" : 23,
                          "_type" : "AMFile",
                          "src" : 11,
                          "trackNumber" : 1,
                          "attributes" : {
                            "ident" : "",
                            "sampleRate" : 44100,
                            "bitDepth" : 16,
                            "gain" : 1.0,
                            "mixToMono" : false
                          },
                            "channelNumber" : "0,1",
                          "parameters" : {
                            "volume" : 2.5064935064935
                          },
                          "effects" : [
                              {
                                "effectName" : "NoiseReduction",
                                "category" : "categoryAudioEffects",
                                "parameters" : {
                                  "denoiserAmount" : 20.0,
                                  "denoiserThreshold" : 0.0,
                                  "noiseProfile" : "hy+tRXppGERM1MtFnmm/RLyPkkMGz75DdwKwRUPeu0YZqyJFPWWfQ936gENdLz1DpbUVROGvkkSX\r\ndR1GCAL5Q2SIsUPguHxCgmKaQ4jvRESJcZNEubu8RS2kCETjaSZDPgMTQqYL0kLQg5dDZ0pxQxSy\r\nIUOSDeBBdUqAQE8EYUC3FKNAUYS0Qa/ZIEFcSNtBZpjqQKSIakB7TphAsqrmQDKrA0ICtGJBc9KQ\r\nQWq+hUCOhatADzQ9QEP5OUA7JPdAOoHHQI/ZNkByXxBAKIO1QII2XEAmqKo/Ego+QHfvgz/ZS+M/\r\nC5CDP0579T8K+D5AzffVQOI97T9V9olAzIaUQCHuMkBFad1Aus8aQVKYVkG+eFJB6CO/QTcQiEG8\r\nUCZBSr63QVwYv0DLjJVCgD+uQP8eLUICxzxBTnRoQa/0hEHLHj1B3KtTQZPRnEF8cTNBAM/HQeaL\r\neEFr+w5AFzIjQcnJGELoQ6ZCcua+QjtbrkIcUYhBjDJYQaGuGUGGunBAGYVYQFW5jkBpygJB0SGI\r\nQFeujUCbFbJAaYGNQMiX+0FYzmJA5FNwQauH6EBNEjdA31yyQH3xYECoVqBA312vQPh7vUAKXJNB\r\nMHWCQZxNIkI1spJBMRLeQL5D3EDcu1tCkWs3QewmUEG6nI9ARFQpQOdLOUCua9Q/8DezQAajCEAp\r\nbRRBoiBpQIKWl0ACH3hAzjFOQHnvIEFI7VZAcYW2QFurzD8rawhBhHeWQHLS40BMzUlAefmZQMhm\r\nLEBk5H9AaUKFQLpY8j/Fa2xAU5zuP6SE2EC3yVxAvqt7QGLcCkAIzoFALA2jP1EFDEC9ggdA72Wc\r\nP2W9GT+Q4qE/6jqmPzkJ2T8k+CJASNqIQKwqwj9qGZs/jTV+P2TlzT5NX1U/p+szP7ZXXT8Hf1I/\r\nuHiPP6P9Uj9n8Rc/h0EGQBShgD/VP+4+kYDhPrwvVT+kfx8/ZbvrPjz+PD9CXF0+69vWPjzcvD+a\r\n4kw/1NksP93fyz/WkJs/5f3xPiJvrz5orEA/DiemPhQiAz8qJ/w+RHX1PbX2kD5SF0E+o0cWPzB1\r\nHT/6jzg/fGW8Pvh7UT/oJV4+BEo+PmV2ST7KkiQ+0Bu2PtD8Qz6k1Ps+hX64Pm52Bz+DL6Y+ChUa\r\nPhSfaj5u9ys+aoKLPQ9uzz1TPrk96kbOPbhE0D3UX5Y9LCWdPcQnYD2xFZw98WOEPcF5Dz1t+Jk9\r\nLtjIPTk0Vj2MphM9yPNUPaA8bT0GXGo9i3KDPRfIkz1Ir8s9bL1hPSAHfD2qm4w97hdaPdroaz0w\r\nZ8k9QOpGPZ18iT07VTo9QE1tPY2BLT3rtYM9tGQuPVjrZj1HSTg9kBcgPQCsqj1e84g9c0U8Pa41\r\nkz0yND093SURPRFAKD2mSEo9iVNQPXsiVD1O86k9EC8IPb4VfD0FvFs9AwEFPZ6bVT1cDAg9Bu5A\r\nPUfTiD2bziU9FBB+PWwjFz27SC49RAhuPS1lGz3Vd4E9Jd3ePItXiT3S92o9cZEjPTTH/TzAw1k9\r\nYcOAPZlKdD04ies81+8XPSq31Dy6hvU8tgW6PDSpyT1fOno9poKAPWxHIT1yPwA93rwDPeQvID2i\r\nik49kPc4PVuU2DykgTE9C3zWPKNxSD1wXSw9dcqgPY697DxOojk9Udy+POdVXz22iik9ScESPcLd\r\nCz2/KS89y5KZPZw/0D36GDU9bmjWPEAKyTzHVXo9ve+YPfACDT0a/DU9p8NuPQ58ED17EBw91V8w\r\nPbNIaD2E9Ro9RYMsPQr/QT2cnLk9v7EwPTJRDD1U7fU8EiGCPcvKqjz9Qw09Y7ruPEkgJT1CIx89\r\nCNIUPduDMT1De/88S7KIPaOL4TxSsuk8DiV0PaHXIj2SHbE8oLXqPLpyXD1mZDE9F5ATPQfUqD2T\r\nEx89CcMIPaInyDzYWFo9Mv8HPSCrDD1Jf3E9eVM1PY3flD0R6W09ivIRPaBuJT2Kkh09Ndj+PFQ/\r\nLj2+zzE9X6kbPfrUET14GeI8rqfxPOdMAT1jVtA8qkwwPauHNz2KMRw9wdj4POfCMz25iEk9u3YU\r\nPdDzyjzynE89fjKrPEfxGz2m2RQ9BL0kPa40Bz1pgVs8gRigPNKVZD14/6A8YkUoPSJxrTxCOOo8\r\nzg7MPAdwAT0oYew8yXQMPW/S9Dy8neI8pIwmPeai2zwabbI84ULMPL6H1TwSXjA9lzrFPNjUXD31\r\nGBE9EDAfPVD2Xj1OI8w8RAMbPcaDDD3j1aU8CqboPFeKFT0lLwU9RL+xPMe/DT122D49TqfAPF3G\r\nnDznNR09su/pPHrZdD2NJrk8jjd7PSwmvjzl8ec8nAQhPXjygjyiaqc8yW87PRELgj24ZgE9DNdI\r\nPYJ51zzET3c9hMf0PGgwCD0wY748TmXaPGssJD26Igg9sTedPNOlBz3Jizs9KPzdPFh1Bz1ttsQ8\r\nBlaHPV2ODz3qqP48PPYKPRh0wDxMDZ48rSusPBmMuTxbiK49mWCIPPQKgT176vo8Ig/2PFqAJz2M\r\nU1A9S1VuPQ/RQj06DUo9c5KgPFwkkzwneaA8QqOfPJ0HXTwI8RY9eoIePaTLFT3S9M084z+1Pbr0\r\nID02sTU9UeU/PXQGVT0wFb88BcR3PJYZJD32ZLM8wIG4PBNDAj0f4gI9UGzvPCB3Lj1OP8M8EioS\r\nPU2atjwwCbs81vqFPDgmnTxA8po8NvUaPQ610TwCvrw8/FXKPKvk5DyG84I8c0HnPEUPCj0QS8o8\r\nwoeKPHhKHT3uNpo8YFuSPAhMSzwJUVs9NQNFPD1MgjyhZZU8INSwPJFz+Dzi0a08zz2XPLV9Bj3r\r\nVbo8NpnAPN9EzDy4v8A8ZP2YPFE3GD12xBE9vxJ8PIhgcjwhGcg8MP6RPFKhpjze+dA8ZFkCPXAC\r\nTD2aEhw9MQrAPKNdnTyM2I08Z7CYPGC74DxpW3s8pMj1PLLgLjwy/6I8fJf6PNi0kzypJDc8Pi6L\r\nPKJFqDxskbI8LnzhPBG4RTzoJ7A8ANtqPPBrHTzED5Y8WlQDPXB0uDz8UpY8FTVrPKjE3Dwc1GY8\r\nhX+oPMlrtTwIgxg9HFFrPEqokTxjB1Y8GKWWPDK6dTygHeo8UNNKPM4WoTwB0Dk88dLqPFB7iDyY\r\nFp48VHIfPUnLvjwck3s8kFEAPXhDVjzATVc8UhmAPNlWmTxAXpY8xoqiPGyH0zyfM7w8WPLtOyws\r\ntzy2+5Q8ikqPPCrkkjwVd5M8CQ2LPJmURTzytig8ws1LPP8PbjxiZ1Y8sERbPHi37Tyh+/A8J5OF\r\nPBQSszzYwpo8F17iPEqrmjw3K3U883SrPPirizzQlC88/hr4PPDqmTzUHkY8NaWTPI6mRDypWqw8\r\n77ZuPCycezxLPFw83lWEPEU+XjzmD4Q84bs2PI/gLj3ly0M8SwLRPPUENTzEtHU8lj+JPH3XoDyJ\r\njQc8bFRNPco79zzTiHk83dtXPBMwlzznaMM8B6pmPM/UCT31eR49Ui4EPP91iTzHFIo8uG2LPOcU\r\njjw4O1o8V5qwPAi/cDzIDBs83kq+PBjTWTwOU0Q81FYAPGyyKTxn7So9YVHaPF65GD16+608FB2D\r\nPPu2Qzz3emc8WGF7PBgL4Dztrb08FWVzPCuImDwUZT08gFcMPLyw5TsgftU8Fq48PHy1fTzqJlc8\r\nFUSGPMgyijy0aXA8b+WXPIqBzDzx7yk8TA4SPLovEDwGl088J5hUPLjxjzwUv/Q8EaXmPBZHtDz+\r\nrJI8Rgw1PB2vkjyAU6U8rN+DPAJikzzIIb08tm4pPK+6lDxBUIQ8uPMwPJE2ZDxyHe88HqmcPKEh\r\nojzwzW48Fie7PMPxQjzJvVY8sg49PEI8iDxKoUU9fnPOPGkqlzyCsY08FvIWPEbSczwAiQ88dD0l\r\nPINxKz2EarI7Ev2yO5QirTuh1qU7yFetO4rFpztRPaw7meGrO4gKrDvS+Kw7gs6uOwnKqjsYi6w7\r\ntiCwO/B9rTvGL687GeWsOy5Arzuwt687fM+wO5l4sjuGGq87abWuOzdksTsZEq87c7euO6bRsDuT\r\n1a87hciyO/AksDvVELE7BJ6wO1EorzvRwq47iN+vO4KRsjvYKa07Fs2tO1A5rjujta47p2mvOyTm\r\nrDt5Ga87CuKvO4JOrDuMYa477umtO0RurTsG9as7/22qO+PYrjuz5aw7czmsO7qXqjtJX6w7CsOq\r\nO+QzqjsbyKs7/xqtO/s7rDthn6s7bcupO71kqjv7uqo7GuKpO7sSrDt+Fqs72funO+Z1rDuvT6g7\r\n8K6pO2nNqTtzZ6Y7ibapO+hOqDuEDqs7kGmpO5llqDs5gac7Q2KnOy4dpztK9Kc7UEGmO9FMpjv2\r\nRKc7D8GlOzEiqDukF6k7zBmlOwfhpTuwa6U7VpylO9+ipDtAuaU7xEKmO9APpDu9fqM7xzOlO6aT\r\nozu4HKU7HY6kO3TNozurN6U7B5KmOyL3ojuwyaU7CHulO/JSpDssvKI7j/CjO5vBojsnz6M7lROj\r\nOwOhojt8aKE73M6hO5zNojuBcaE77yiiO/yiojsloqM78tqhO3hpoDseI6M75deiO8BmoDs+gaQ7\r\nTpCfO1IeoTvr6p47CTmhO1BvojuKDJ87llOhO6c2ozvlvqA71FugO9wOoDtRzp47qLOfOxyEnTsi\r\nrKA7co2eOzvYojvZ6J47OpedOzzPnDuRLaE7nQaeO85fnjvdjJ47hjigO4btnTt5RZw73POdOzn/\r\nnDvjaZ47dDmdO3l1nDsyH54724meO8qQnDviOZs7PgKeO7c2mjtn7pw7n1+dOxzRnDuVSZw7Elye\r\nO3tFnTszoZs75rmaO3/fnDvaIp072U6eOwBBmzuYkps7nkacO9sxnDsVq507ezKbO3h7mzvu75s7\r\nVMuaO0yCmztkYJg7LnybOygzmzuncJo7ttKZO20PnDsNzps7rruZO/j5mDsm65g7m5mZO8zNmTsm\r\n+po7MAaZO3SRmjsw5pk7PQObO5j4mzv7cpk7rbSXO+s0mjtMdJo7/BWZOz36mjvhHJk7vvKaO+pg\r\nmDsLpJk7FMOaOzVbmTv+Lpk7fGeaOyxBmDukU5k7KSGZO1iTmTvEGZg7fmqZO+VBmDun4Zo7e/WY\r\nO0EoljvCtJc7NMyYO90cmTvlWpc7ZAGaOwycmDseWpg77OWXO4qBmDtbVpY7YeWYO3cJmjv0bZg7\r\npLWVO0u7lTuAgJY76KaZO4eKlTtHZ5k7YNmYO6JQmDsuZZc7+dCXO8/zlzuhZJk78YGVOy29lzsd\r\nd5g7NBOZO/yklztH65k7hWyXO90blztPD5c7JPmVO9aJljv6X5o7S3+WOziflztjl5U7HJuVO6Ke\r\nlzvp+pY7THqWOwMtlzt1eZo7PIOXOx/HmDvrQZc7zZiYO/ovmDvdMJk7vwmXO5jglzsqN5Y7uueW\r\nO2nBlzvSs5Y7Xx6WOyZdlzsZNZU7TUyXO5SmlzvC45Y7/IyVO73NlzshvJg7SNCWOwJDmTuHL61F\r\nemkYREzUy0Weab9EvI+SQwbPvkN3ArBFQ967RhmrIkU9ZZ9D3fqAQ10vPUOltRVE4a+SRJd1HUYI\r\nAvlDZIixQ+C4fEKCYppDiO9ERIlxk0S5u7xFLaQIRONpJkM+AxNCpgvSQtCDl0NnSnFDFLIhQ5IN\r\n4EF1SoBATwRhQLcUo0BRhLRBr9kgQVxI20FmmOpApIhqQHtOmECyquZAMqsDQgK0YkFz0pBBar6F\r\nQI6Fq0APND1AQ/k5QDsk90A6gcdAj9k2QHJfEEAog7VAgjZcQCaoqj8SCj5Ad++DP9lL4z8LkIM/\r\nTnv1Pwr4PkDN99VA4j3tP1X2iUDMhpRAIe4yQEVp3UC6zxpBUphWQb54UkHoI79BNxCIQbxQJkFK\r\nvrdBXBi/QMuMlUKAP65A/x4tQgLHPEFOdGhBr/SEQcsePUHcq1NBk9GcQXxxM0EAz8dB5ot4QWv7\r\nDkAXMiNByckYQuhDpkJy5r5CO1uuQhxRiEGMMlhBoa4ZQYa6cEAZhVhAVbmOQGnKAkHRIYhAV66N\r\nQJsVskBpgY1AyJf7QVjOYkDkU3BBq4foQE0SN0DfXLJAffFgQKhWoEDfXa9A+Hu9QApck0EwdYJB\r\nnE0iQjWykkExEt5AvkPcQNy7W0KRazdB7CZQQbqcj0BEVClA50s5QK5r1D/wN7NABqMIQCltFEGi\r\nIGlAgpaXQAIfeEDOMU5Aee8gQUjtVkBxhbZAW6vMPytrCEGEd5ZActLjQEzNSUB5+ZlAyGYsQGTk\r\nf0BpQoVAuljyP8VrbEBTnO4/pITYQLfJXEC+q3tAYtwKQAjOgUAsDaM/UQUMQL2CB0DvZZw/Zb0Z\r\nP5DioT/qOqY/OQnZPyT4IkBI2ohArCrCP2oZmz+NNX4/ZOXNPk1fVT+n6zM/tlddPwd/Uj+4eI8/\r\no/1SP2fxFz+HQQZAFKGAP9U/7j6RgOE+vC9VP6R/Hz9lu+s+PP48P0JcXT7r29Y+PNy8P5riTD/U\r\n2Sw/3d/LP9aQmz/l/fE+Im+vPmisQD8OJ6Y+FCIDPyon/D5EdfU9tfaQPlIXQT6jRxY/MHUdP/qP\r\nOD98Zbw++HtRP+glXj4ESj4+ZXZJPsqSJD7QG7Y+0PxDPqTU+z6Ffrg+bnYHP4Mvpj4KFRo+FJ9q\r\nPm73Kz5qgos9D27PPVM+uT3qRs49uETQPdRflj0sJZ09xCdgPbEVnD3xY4Q9wXkPPW34mT0u2Mg9\r\nOTRWPYymEz3I81Q9oDxtPQZcaj2LcoM9F8iTPUivyz1svWE9IAd8PaqbjD3uF1o92uhrPTBnyT1A\r\n6kY9nXyJPTtVOj1ATW09jYEtPeu1gz20ZC49WOtmPUdJOD2QFyA9AKyqPV7ziD1zRTw9rjWTPTI0\r\nPT3dJRE9EUAoPaZISj2JU1A9eyJUPU7zqT0QLwg9vhV8PQW8Wz0DAQU9nptVPVwMCD0G7kA9R9OI\r\nPZvOJT0UEH49bCMXPbtILj1ECG49LWUbPdV3gT0l3d48i1eJPdL3aj1xkSM9NMf9PMDDWT1hw4A9\r\nmUp0PTiJ6zzX7xc9KrfUPLqG9Ty2Bbo8NKnJPV86ej2mgoA9bEchPXI/AD3evAM95C8gPaKKTj2Q\r\n9zg9W5TYPKSBMT0LfNY8o3FIPXBdLD11yqA9jr3sPE6iOT1R3L4851VfPbaKKT1JwRI9wt0LPb8p\r\nLz3Lkpk9nD/QPfoYNT1uaNY8QArJPMdVej2975g98AINPRr8NT2nw249DnwQPXsQHD3VXzA9s0ho\r\nPYT1Gj1Fgyw9Cv9BPZycuT2/sTA9MlEMPVTt9TwSIYI9y8qqPP1DDT1juu48SSAlPUIjHz0I0hQ9\r\n24MxPUN7/zxLsog9o4vhPFKy6TwOJXQ9odciPZIdsTygteo8unJcPWZkMT0XkBM9B9SoPZMTHz0J\r\nwwg9oifIPNhYWj0y/wc9IKsMPUl/cT15UzU9jd+UPRHpbT2K8hE9oG4lPYqSHT012P48VD8uPb7P\r\nMT1fqRs9+tQRPXgZ4jyup/E850wBPWNW0DyqTDA9q4c3PYoxHD3B2Pg858IzPbmIST27dhQ90PPK\r\nPPKcTz1+Mqs8R/EbPabZFD0EvSQ9rjQHPWmBWzyBGKA80pVkPXj/oDxiRSg9InGtPEI46jzODsw8\r\nB3ABPShh7DzJdAw9b9L0PLyd4jykjCY95qLbPBptsjzhQsw8vofVPBJeMD2XOsU82NRcPfUYET0Q\r\nMB89UPZePU4jzDxEAxs9xoMMPePVpTwKpug8V4oVPSUvBT1Ev7E8x78NPXbYPj1Op8A8XcacPOc1\r\nHT2y7+k8etl0PY0muTyON3s9LCa+POXx5zycBCE9ePKCPKJqpzzJbzs9EQuCPbhmAT0M10g9gnnX\r\nPMRPdz2Ex/Q8aDAIPTBjvjxOZdo8aywkPboiCD2xN50806UHPcmLOz0o/N08WHUHPW22xDwGVoc9\r\nXY4PPeqo/jw89go9GHTAPEwNnjytK6w8GYy5PFuIrj2ZYIg89AqBPXvq+jwiD/Y8WoAnPYxTUD1L\r\nVW49D9FCPToNSj1zkqA8XCSTPCd5oDxCo588nQddPAjxFj16gh49pMsVPdL0zTzjP7U9uvQgPTax\r\nNT1R5T89dAZVPTAVvzwFxHc8lhkkPfZkszzAgbg8E0MCPR/iAj1QbO88IHcuPU4/wzwSKhI9TZq2\r\nPDAJuzzW+oU8OCadPEDymjw29Ro9DrXRPAK+vDz8Vco8q+TkPIbzgjxzQec8RQ8KPRBLyjzCh4o8\r\neEodPe42mjxgW5I8CExLPAlRWz01A0U8PUyCPKFllTwg1LA8kXP4POLRrTzPPZc8tX0GPetVujw2\r\nmcA830TMPLi/wDxk/Zg8UTcYPXbEET2/Enw8iGByPCEZyDww/pE8UqGmPN750DxkWQI9cAJMPZoS\r\nHD0xCsA8o12dPIzYjTxnsJg8YLvgPGlbezykyPU8suAuPDL/ojx8l/o82LSTPKkkNzw+Los8okWo\r\nPGyRsjwufOE8EbhFPOgnsDwA22o88GsdPMQPljxaVAM9cHS4PPxSljwVNWs8qMTcPBzUZjyFf6g8\r\nyWu1PAiDGD0cUWs8SqiRPGMHVjwYpZY8Mrp1PKAd6jxQ00o8zhahPAHQOTzx0uo8UHuIPJgWnjxU\r\nch89Scu+PByTezyQUQA9eENWPMBNVzxSGYA82VaZPEBeljzGiqI8bIfTPJ8zvDxY8u07LCy3PLb7\r\nlDyKSo88KuSSPBV3kzwJDYs8mZRFPPK2KDzCzUs8/w9uPGJnVjywRFs8eLftPKH78Dwnk4U8FBKz\r\nPNjCmjwXXuI8SquaPDcrdTzzdKs8+KuLPNCULzz+Gvg88OqZPNQeRjw1pZM8jqZEPKlarDzvtm48\r\nLJx7PEs8XDzeVYQ8RT5ePOYPhDzhuzY8j+AuPeXLQzxLAtE89QQ1PMS0dTyWP4k8fdegPImNBzxs\r\nVE09yjv3PNOIeTzd21c8EzCXPOdowzwHqmY8z9QJPfV5Hj1SLgQ8/3WJPMcUijy4bYs85xSOPDg7\r\nWjxXmrA8CL9wPMgMGzzeSr48GNNZPA5TRDzUVgA8bLIpPGftKj1hUdo8XrkYPXr7rTwUHYM8+7ZD\r\nPPd6ZzxYYXs8GAvgPO2tvTwVZXM8K4iYPBRlPTyAVww8vLDlOyB+1TwWrjw8fLV9POomVzwVRIY8\r\nyDKKPLRpcDxv5Zc8ioHMPPHvKTxMDhI8ui8QPAaXTzwnmFQ8uPGPPBS/9DwRpeY8Fke0PP6skjxG\r\nDDU8Ha+SPIBTpTys34M8AmKTPMghvTy2bik8r7qUPEFQhDy48zA8kTZkPHId7zweqZw8oSGiPPDN\r\nbjwWJ7s8w/FCPMm9VjyyDj08QjyIPEqhRT1+c848aSqXPIKxjTwW8hY8RtJzPACJDzx0PSU8g3Er\r\nPYRqsjsS/bI7lCKtO6HWpTvIV607isWnO1E9rDuZ4as7iAqsO9L4rDuCzq47CcqqOxiLrDu2ILA7\r\n8H2tO8YvrzsZ5aw7LkCvO7C3rzt8z7A7mXiyO4Yarztpta47N2SxOxkSrztzt647ptGwO5PVrzuF\r\nyLI78CSwO9UQsTsEnrA7USivO9HCrjuI3687gpGyO9gprTsWza07UDmuO6O1rjunaa87JOasO3kZ\r\nrzsK4q87gk6sO4xhrjvu6a07RG6tOwb1qzv/bao749iuO7PlrDtzOaw7upeqO0lfrDsKw6o75DOq\r\nOxvIqzv/Gq07+zusO2Gfqztty6k7vWSqO/u6qjsa4qk7uxKsO34WqzvZ+6c75nWsO69PqDvwrqk7\r\nac2pO3NnpjuJtqk76E6oO4QOqzuQaak7mWWoOzmBpztDYqc7Lh2nO0r0pztQQaY70UymO/ZEpzsP\r\nwaU7MSKoO6QXqTvMGaU7B+GlO7BrpTtWnKU736KkO0C5pTvEQqY70A+kO71+ozvHM6U7ppOjO7gc\r\npTsdjqQ7dM2jO6s3pTsHkqY7IveiO7DJpTsIe6U78lKkOyy8ojuP8KM7m8GiOyfPozuVE6M7A6Gi\r\nO3xooTvczqE7nM2iO4FxoTvvKKI7/KKiOyWiozvy2qE7eGmgOx4jozvl16I7wGagOz6BpDtOkJ87\r\nUh6hO+vqnjsJOaE7UG+iO4oMnzuWU6E7pzajO+W+oDvUW6A73A6gO1HOnjuos587HISdOyKsoDty\r\njZ47O9iiO9nonjs6l507PM+cO5EtoTudBp47zl+eO92MnjuGOKA7hu2dO3lFnDvc8507Of+cO+Np\r\nnjt0OZ07eXWcOzIfnjvbiZ47ypCcO+I5mzs+Ap47tzaaO2funDufX507HNGcO5VJnDsSXJ47e0Wd\r\nOzOhmzvmuZo7f9+cO9oinTvZTp47AEGbO5iSmzueRpw72zGcOxWrnTt7Mps7eHubO+7vmztUy5o7\r\nTIKbO2RgmDsufJs7KDObO6dwmju20pk7bQ+cOw3Omzuuu5k7+PmYOybrmDubmZk7zM2ZOyb6mjsw\r\nBpk7dJGaOzDmmTs9A5s7mPibO/tymTuttJc76zSaO0x0mjv8FZk7PfqaO+EcmTu+8po76mCYOwuk\r\nmTsUw5o7NVuZO/4umTt8Z5o7LEGYO6RTmTspIZk7WJOZO8QZmDt+apk75UGYO6fhmjt79Zg7QSiW\r\nO8K0lzs0zJg73RyZO+ValztkAZo7DJyYOx5amDvs5Zc7ioGYO1tWljth5Zg7dwmaO/RtmDuktZU7\r\nS7uVO4CAljvoppk7h4qVO0dnmTtg2Zg7olCYOy5llzv50Jc7z/OXO6FkmTvxgZU7Lb2XOx13mDs0\r\nE5k7/KSXO0frmTuFbJc73RuXO08Plzsk+ZU71omWO/pfmjtLf5Y7OJ+XO2OXlTscm5U7op6XO+n6\r\nljtMepY7Ay2XO3V5mjs8g5c7H8eYO+tBlzvNmJg7+i+YO90wmTu/CZc7mOCXOyo3lju655Y7acGX\r\nO9KzljtfHpY7Jl2XOxk1lTtNTJc7lKaXO8Ljljv8jJU7vc2XOyG8mDtI0JY7AkOZOw==",
                                  "noiseTrainingType" : "default"
                                },
                                "metadata" : {
                                  "effectIndex" : "0"
                                }
                              }
                          ],
                          "start" : 1410,
                          "duration" : 1553,
                          "mediaStart" : 0,
                          "mediaDuration" : 1553,
                          "scalar" : 1,
                          "animationTracks" : {

                          }
                        }
,
                    "start" : 1410,
                    "duration" : 1553,
                    "mediaStart" : 0,
                    "mediaDuration" : 1553,
                    "scalar" : 1,
                    "metadata" : {
                      "WinSubProjectDisplayName" : "",
                      "clipSpeedAttribute" : false
                    }
                  },
                  {
                    "id" : 24,
                    "_type" : "VMFile",
                    "src" : 3,
                    "trackNumber" : 0,
                    "attributes" : {
                      "ident" : "chi_tiet_sp"
                    },
                    "effects" : [

                    ],
                    "start" : 2963,
                    "duration" : 75,
                    "mediaStart" : 0,
                    "mediaDuration" : 75,
                    "scalar" : 1,
                    "metadata" : {
                      "WinSubProjectDisplayName" : "",
                      "clipSpeedAttribute" : false
                    },
                    "animationTracks" : {

                    }
                  },
                  {
                    "id" : 25,
                    "_type" : "UnifiedMedia",
                    "video" : 
                        {
                          "id" : 26,
                          "_type" : "VMFile",
                          "src" : 9,
                          "trackNumber" : 0,
                          "attributes" : {
                            "ident" : "VD_chi_tiet_sp"
                          },
                          "effects" : [

                          ],
                          "start" : 3038,
                          "duration" : 8727,
                          "mediaStart" : 0,
                          "mediaDuration" : 8727,
                          "scalar" : 1,
                          "animationTracks" : {

                          }
                        },
                    "audio" : 
                        {
                          "id" : 27,
                          "_type" : "AMFile",
                          "src" : 9,
                          "trackNumber" : 1,
                          "attributes" : {
                            "ident" : "",
                            "sampleRate" : 44100,
                            "bitDepth" : 16,
                            "gain" : 1.0,
                            "mixToMono" : false
                          },
                            "channelNumber" : "0,1",
                          "parameters" : {
                            "volume" : 3.12987012987012
                          },
                          "effects" : [
                              {
                                "effectName" : "NoiseReduction",
                                "category" : "categoryAudioEffects",
                                "parameters" : {
                                  "denoiserAmount" : 20.0,
                                  "denoiserThreshold" : 0.0,
                                  "noiseProfile" : "8vkIRlzsFER/+J9FjcDBRNHtt0MkxrxDmX8hRD0WGUWW0G1HjYfaRee/PkXCSA1EFNV+Q6nPnkO9\r\nVY1EO+r2RWZpgUYNl+lE46+BRXBgSUREQw1EiGyJQ9/KVEU4ntZG6bNSRk8Xl0UFjmFFhiHnRXt2\r\nIkRh5nREXDO+Q26wdUR1W45EFl5jRA2CG0QGycpDDuhMREEirkMFsC9C1cqYQrO63ULKub5B9jqs\r\nQnNHqEI2tAJDURVKQ5OjfULwZ2NCH7ljQvQ+qkGzThZC7AkrQlXhmULOzDtCIPJBQ5q2MUM9gntC\r\nH++hQUVNFEP4FdBDShcEQkQczkMtVN1CwsIyQ0YOfEJC/cNBGg82QorGPELgfMhCY3QIQxY9a0Os\r\n6QhDJzSjQqK2xUJgjCpCusnlQL2MAkJhbndCLpq7Qlv8A0P2uAdCrL9ZQYM3g0A/tYdBMe4xQik7\r\noELxYr1BLOj4QC5sSUDQKytAwr3lQCM6BUEUp2JAqdOjQQJiDUFBefBAAygxQT5RjEDDPbBAfm71\r\nQBNfPEHDl9pARjo+Qa8bdEBAi/U/6qjfP6N0SECw7jpAw6sSQKE5I0C4ochAcPAnQLULP0CK2ThA\r\nnvuVQOwJGUEgP5dAwLitQD5kaEFJiThBZfnjPyYrQUBoEzNBIgvJQRzVbkE6r+dBZTCWQtlbxUHB\r\n2jBBWGLNQsvlAUOPvpxCwpMDQ4OyBUSnbntEVsv8Qn6KjEIVrXFBMLz3QasL00Glg9RA2h1yQQei\r\nG0I9PgRBAFv/QP4LeEHmG0tBzEO/QZ6m/UDKtQpBO3vbQTdb0z90dFpAVCsdQHm8vECXJ4dAtXqN\r\nQPfHPUCoYQ5A+qRPP9TwVj/N61w/ttOLP/HKDj8Z6GE/Lq4aQYbdn0Aq/fBAO719QLUwhD/VoiRB\r\n4+ABQfoVDkArPzNClzHjQQziDkHc9dVAWl8KQVLpL0E3DKxB8On6QMHGM0I9fxBC6qjMQE6fGUHn\r\na3tA4GddQfKjmECItwRBELoeQSIzM0FhBU1A6qEbQL9SbEAhncBA/Ep/QCq+l0AORyZBnIlSQedn\r\nN0Cc+MFApZ+aQMx6uUAkNNc/GWOwPyxmBD9FESBATvyzP73YKD96YIxA/CCzPnm+Fj+zFfw+4kw9\r\nP2H8MT++Wjw/JDQDP7j7xD4iJ/w+zjAlPwNrej4oUcM+vHjTPmngDD+ULJI+/OQ2PpIJmD4nalc+\r\nEA3ePq5DrT7P4cg+l1m1PuYXbD7y2K8+WUmoPpff3D7QGp8+SOKjPkafqj5UoaY++qdwPsC5KD4o\r\n/ms+JCAyPmbIhT6Y8pw+4RmGPnjAlD4rqGQ+kDtJPiOXUD41ToU+ZMaBPi8QnD4B6oQ+oxFWProJ\r\nMD7opGY+q/s4PjwLXD5/dI8+T5SqPpU5fT6croc+dC1cPuZigz7GLWI+A59oPivpXD4Q1Hs+W7CX\r\nPgwNVD5m0DM+204vPoV5LT4cf4U+R5OCPkGncD7A3jQ+nJ9ePnj0Uj5xH0c+VKE6Pl+fIT5j01I+\r\nSaFgPmotiz4xsl0+TME/PpPrjj6UWBU+HrMpPubAEz5wfyA+aA1UPjjaZz4ST1A+yOpcPusJQD4W\r\nEBs+dN03PlZP8j04puw9/jRSPhw8ET4iJiE+j/MtPiTEgz1hvho+5RVkPi8MTT6RrTk+CJzcPffI\r\nNj7e2kI+7gcSPntMXT6P2ho+mBwlPvemBD5wZ909FB35PaGVOD5hclE+jdzlPaCJaz5vZ/89pEpc\r\nPp4IED4LKBc+70QsPvrgrj7IoXE+shqiPYVN7j0imC8+s+PEPYLmrD2L4gU+kq8LP0RQWz7lbTc+\r\n8d74PU+eZz4EkaM9ptWXPn76Mj/DVwg/QsqrPYg2Gj5zmf8+r04EPn5kDz5S4gk+MLiXPs4kVz7g\r\nggU+yIKpPRSSBD4865I+3tcpPj7CtT4MFLo+bpLXPSpCsD1N2LI9ZA6PPr4e+j06c+U9YOmfPgM8\r\n1j3OTgc+i9wRPol20T3f+jo+/DrOPSo0/j2mGJ49YJYPPqVnOD4fX7g9AR3iPSOwkD364xo+mWIT\r\nPi7ppz1CkAM+qQ0TPqWKkj2k8M89l27SPSQwAT7jbYM9pOI6PfOJjD1/uO49FAnxPPLdlT22CqE9\r\nvjkQPvrl6j1cbNM9s3AMPrSdxD3+SLU9ZISHPadZgT1XhNs9iLnePcA44z0c7E89fhPTPbNs2D0C\r\nuNU9tbOcPQ5D+z1Qj8g9bTwCPliG7T2oIqg9RPiTPT6U+T0Tkqg9WB0EPmOtoj12b189kK3APYZn\r\nqD0jK2o9VDf9PRo1/j3A3J49ADahPRVakD00T5g9wny7PQBgej1NdfA9MCe0PdjRhj2/OJk9esEK\r\nPijNqz0cv/s9wi0EPuawED2yT+w8zZ8LPtrbpz2IA9c9BzWOPcFeHD4kTn89txafPUatgT0I0889\r\noDskPb0VHT2GjaQ9ejd0PewnZz2+8tc9zA5ePZa2yj3DZIs9zCElPb0nij0LBaU9dgWdPchpfD2o\r\nWMQ910OvPb0AbT1rEJA9jCbCPSP2ED3zP3E9QCzmPaKVlD0Rcck9961/PU8iGD6Al2M9Oo+vPWI6\r\nMj30CqE91ROIPSxEgT0K8Z893AgIPYw7JD3QlHU990R1PRJNpj3yK4k9hky5PXqwyD31OXE9UJ6G\r\nPaQZdD3fuz499n1qPcQWiz3jMKc9naSIPTc7jj2ce1M9dvtQPV3omj0AXDw9xNV9Pf4Lcz0yh5Q9\r\nxDeRPb5Kej0Xg589flmWPV2ZmT1Qo4k9rFCtPSa7Fj1AZbs9nqo4PZlYmD10p2g9AtGCPfJjsj0g\r\no4o8ZIMVPXMcJT2c0Sw9N9CWPclUUD28C0k95vvGPSFdnz1H1oo9ND/7PH1qRz0ggV49ui0fPZDb\r\npT1APKY9mp+pPXb0FT3KuG89hPG/PGliSj1uZZ496atPPWS9RT203009CkiQPUAwQz2iWkA9GJCg\r\nPdD4jz3fpD094Ys7PaaiFz0MRBg9TzaKPXLs3DwUXEU9jXaEPUxtxz1iE0k9cIbAPcLFFD130CE9\r\n4sAmPQ4cvT3xX7883GSwPJLUXz0sKEc9nov2PM9jgz1m5CY9MMcgPdkxjz20Im89rxF7PWAUXz0O\r\ndvI8IlpAPQz3Ej3Uk5080ZOYPUzXdj2F6jY9rYkwPUuCHj2lJCs9JBCfPcQlET1qvWE9WndqPaDm\r\nuzze30A9eM1cPXGQmz3P44o9sppUPdrtIT2mj2A9TrKLPUgDhz2N8DM9SPEnPYEMgz3XuzY9KAY+\r\nPXncHj1GqBE9NAC5PKbAZz2JAmM9iY8yPaVekD3GQAk9RfE7PWbXFj1esQI9TNUQPbYYIj0oSOs8\r\nnQKgPVOnAT36GhU9iEsKPaIQvj1m2xw9njuDPZJ1/jwvwSE9sNvqPI6zPz2Jsjg9YUxdPSdu8TxQ\r\n0Bc9UjE1PRiBDz1KUCk9C+KxPfAs+Tw8Wow930dTPaXFWT1mYC89nUmVPakXYz12/ew8yDIvPbed\r\nLj11uAc9LWtSPUGSDT1dI+g9njRpPTr5Oj0rzg89tDopPXa9Sj1Qatw8I54yPUC60Txux0I9Mbpd\r\nPcMVYT3j2kc9HFobPYRFdD0Hous8UhE6PQ5pGT26DCE91XztPLA3AT3YsUs9LhdnPQparzyBFVc9\r\njygLPeHOJj3CBRQ9UEokPRvIHD3LpMQ9faZJPVjZbT19xxY96W3mPFvQOj1SWv08B+/mPMNgAj2E\r\nfpw8ClbUPNQbYz0f0EA95oSxPM65/zxB5XQ9ROQMPfiJQD0yahk9GVm6PEZD7DyqHxA9Tk2tPVLw\r\niz0HmTg9vOgPPcpMST0BxIg8Z7vHPBT3Kz3knus8Wp6MPe8ZFz1cdNE8dBqaPVcW2TyHMnU8ZgX0\r\nPA0iGT2EryA94oUhPe1gHz3VtB09S1sdPcHAHT3YgR09hjUcPWicGz3wWx09C6EbPSN7Gz3trRo9\r\n5+YaPX3FGj29/Ro9asUZPT06Gj3tkRo9vJoZPYSRGT1lPBk9fr0ZPWJJGT3htBk9l+AYPUGhGD2C\r\nthg9mGMYPTgVGD1txRc9k54XPcA4Fj05RRc9Y/AWPbObFz2Pwxc91LEWPQn4FT0KbRU9Eh4WPVJ3\r\nFT336xU9cnUVPT0JFT0cWBU9nBYUPTxOFT2u3hQ93iQUPd7JEz2fRhQ969ATPRDTEz2yuBM9KI8T\r\nPXTHEj35ehM9lCkTPSp1Ez2SShI9/rQSPb2pEj2SaRI9GtQRPduiET1JexE981cRPfwQEj1uSRE9\r\nt/4QPZnkED18uxA96x4RPdWXED1DEhA94EwQPZ8TED3/NBA9RnEPPcuvDz1tgRA9bBsPPUvHDz2A\r\nRQ89I68OPaP9Dj0SeQ49DEMOPVD9DT1AxQ09IkcNPdCdDT1HqA09zXoNPXv+DD2ORQ09FywNPZOm\r\nDD1eQAw9K8UNPTz5DD1o7Aw9u44NPayiDD1/JAw9gNYLPaVECz1gvws9oIgLPe0ZCz0jEQs9kvoL\r\nPUlFCz1Ppws9AMIKPTeOCj1LKgs9MO0KPdUTCj3MsAk9nV4KPdZbCz3k1Ak9UvsKPTImCj2GxQk9\r\nMYcJPUoLCj1hpgk92zoJPcrTCT3+egk9AqcIPWW/CD3lmAg9XdcIPVzfBz254gg9v9AIPV0RCT3D\r\nkwg99nMHPWYlCD02Zwc9quAHPUg2CD3ZWgc9/30HPYOiBz2+ogc9TTwHPbR/Bz05+gc9FmcGPYcd\r\nBz0jIQc9/+AGPQ7ABj34bwc9buYFPRHPBj1luwY9PboFPWXEBj1zJgY9p4IGPZwVBj2v0QU9lG8G\r\nPdm9Bj2fFQY9n7AFPX8CBj1q+wU9Pl0FPTI7BT1IWwU9LqoFPRdWBj0CpQQ9F1kFPWQRBT3ZVAU9\r\nbmoEPYDXBD12XgQ9HQ0EPfZwBD0l5gM97Q4EPQw3BD3/tAM9zj0EPVoEBD0qBQQ9QTIEPeoEBD2b\r\nvgM9RtkDPTPPAz0YYgM9ukMDPQU8Az0SHAM9mgEDPQSiAj2yVwM9ZygDPfYsAz3pwwM9n80DPV1J\r\nAz3l/wI9cx8DPT6iAj1e6QI9bVEDPb57Aj1P/AI9hloCPTvTAj0GnwI97kMCPbqZAj2NlAI9VFEC\r\nPYkCAz06wgI9nBsDPZ4gAz2xBQI9gnICPSKWAj0PEAI9tHkCPWA1Aj2mQwI9efgBPW5bAj1iUAI9\r\n2oYCPQn4AT2qbgE9ohUCPfoQAj1XVQE9w5sBPVPJAT1qdQE9DnYCPZ/uAT0lGgI9PeEBPYr0AT2m\r\nWAE9VSsBPT21AT02nwE9HXkBPZQzAT3TpQA9BJgAPceSAT0kzwE90rYBPfDLAD2xgwE9UgQCPZ+t\r\nAD1DWgA9dqgBPQs1AT39VwE9+10BPcAmAT0b7AA9eGIAPR3/AT1bWwE9098APeYtAT08UAA9DHAB\r\nPUW5AD1mngE9HakBPaigAT1FSAE9X/IAPah7AD3vXwE9uEoBPZMiAT0BEgI9LnIBPZi5AD3y+QhG\r\nXOwURH/4n0WNwMFE0e23QyTGvEOZfyFEPRYZRZbQbUeNh9pF578+RcJIDUQU1X5Dqc+eQ71VjUQ7\r\n6vZFZmmBRg2X6UTjr4FFcGBJRERDDUSIbIlD38pURTie1kbps1JGTxeXRQWOYUWGIedFe3YiRGHm\r\ndERcM75DbrB1RHVbjkQWXmNEDYIbRAbJykMO6ExEQSKuQwWwL0LVyphCs7rdQsq5vkH2OqxCc0eo\r\nQja0AkNRFUpDk6N9QvBnY0IfuWNC9D6qQbNOFkLsCStCVeGZQs7MO0Ig8kFDmrYxQz2Ce0If76FB\r\nRU0UQ/gV0ENKFwRCRBzOQy1U3ULCwjJDRg58QkL9w0EaDzZCisY8QuB8yEJjdAhDFj1rQ6zpCEMn\r\nNKNCorbFQmCMKkK6yeVAvYwCQmFud0IumrtCW/wDQ/a4B0Ksv1lBgzeDQD+1h0Ex7jFCKTugQvFi\r\nvUEs6PhALmxJQNArK0DCveVAIzoFQRSnYkCp06NBAmINQUF58EADKDFBPlGMQMM9sEB+bvVAE188\r\nQcOX2kBGOj5Brxt0QECL9T/qqN8/o3RIQLDuOkDDqxJAoTkjQLihyEBw8CdAtQs/QIrZOECe+5VA\r\n7AkZQSA/l0DAuK1APmRoQUmJOEFl+eM/JitBQGgTM0EiC8lBHNVuQTqv50FlMJZC2VvFQcHaMEFY\r\nYs1Cy+UBQ4++nELCkwNDg7IFRKdue0RWy/xCfoqMQhWtcUEwvPdBqwvTQaWD1EDaHXJBB6IbQj0+\r\nBEEAW/9A/gt4QeYbS0HMQ79Bnqb9QMq1CkE7e9tBN1vTP3R0WkBUKx1Aeby8QJcnh0C1eo1A98c9\r\nQKhhDkD6pE8/1PBWP83rXD+204s/8coOPxnoYT8urhpBht2fQCr98EA7vX1AtTCEP9WiJEHj4AFB\r\n+hUOQCs/M0KXMeNBDOIOQdz11UBaXwpBUukvQTcMrEHw6fpAwcYzQj1/EELqqMxATp8ZQedre0Dg\r\nZ11B8qOYQIi3BEEQuh5BIjMzQWEFTUDqoRtAv1JsQCGdwED8Sn9AKr6XQA5HJkGciVJB52c3QJz4\r\nwUCln5pAzHq5QCQ01z8ZY7A/LGYEP0URIEBO/LM/vdgoP3pgjED8ILM+eb4WP7MV/D7iTD0/Yfwx\r\nP75aPD8kNAM/uPvEPiIn/D7OMCU/A2t6PihRwz68eNM+aeAMP5Qskj785DY+kgmYPidqVz4QDd4+\r\nrkOtPs/hyD6XWbU+5hdsPvLYrz5ZSag+l9/cPtAanz5I4qM+Rp+qPlShpj76p3A+wLkoPij+az4k\r\nIDI+ZsiFPpjynD7hGYY+eMCUPiuoZD6QO0k+I5dQPjVOhT5kxoE+LxCcPgHqhD6jEVY+ugkwPuik\r\nZj6r+zg+PAtcPn90jz5PlKo+lTl9Ppyuhz50LVw+5mKDPsYtYj4Dn2g+K+lcPhDUez5bsJc+DA1U\r\nPmbQMz7bTi8+hXktPhx/hT5Hk4I+QadwPsDeND6cn14+ePRSPnEfRz5UoTo+X58hPmPTUj5JoWA+\r\nai2LPjGyXT5MwT8+k+uOPpRYFT4esyk+5sATPnB/ID5oDVQ+ONpnPhJPUD7I6lw+6wlAPhYQGz50\r\n3Tc+Vk/yPTim7D3+NFI+HDwRPiImIT6P8y0+JMSDPWG+Gj7lFWQ+LwxNPpGtOT4InNw998g2Pt7a\r\nQj7uBxI+e0xdPo/aGj6YHCU+96YEPnBn3T0UHfk9oZU4PmFyUT6N3OU9oIlrPm9n/z2kSlw+nggQ\r\nPgsoFz7vRCw++uCuPsihcT6yGqI9hU3uPSKYLz6z48Q9guasPYviBT6Srws/RFBbPuVtNz7x3vg9\r\nT55nPgSRoz2m1Zc+fvoyP8NXCD9Cyqs9iDYaPnOZ/z6vTgQ+fmQPPlLiCT4wuJc+ziRXPuCCBT7I\r\ngqk9FJIEPjzrkj7e1yk+PsK1PgwUuj5uktc9KkKwPU3Ysj1kDo8+vh76PTpz5T1g6Z8+AzzWPc5O\r\nBz6L3BE+iXbRPd/6Oj78Os49KjT+PaYYnj1glg8+pWc4Ph9fuD0BHeI9I7CQPfrjGj6ZYhM+Lumn\r\nPUKQAz6pDRM+pYqSPaTwzz2XbtI9JDABPuNtgz2k4jo984mMPX+47j0UCfE88t2VPbYKoT2+ORA+\r\n+uXqPVxs0z2zcAw+tJ3EPf5ItT1khIc9p1mBPVeE2z2Iud49wDjjPRzsTz1+E9M9s2zYPQK41T21\r\ns5w9DkP7PVCPyD1tPAI+WIbtPagiqD1E+JM9PpT5PROSqD1YHQQ+Y62iPXZvXz2QrcA9hmeoPSMr\r\naj1UN/09GjX+PcDcnj0ANqE9FVqQPTRPmD3CfLs9AGB6PU118D0wJ7Q92NGGPb84mT16wQo+KM2r\r\nPRy/+z3CLQQ+5rAQPbJP7DzNnws+2tunPYgD1z0HNY49wV4cPiROfz23Fp89Rq2BPQjTzz2gOyQ9\r\nvRUdPYaNpD16N3Q97CdnPb7y1z3MDl49lrbKPcNkiz3MISU9vSeKPQsFpT12BZ09yGl8PahYxD3X\r\nQ689vQBtPWsQkD2MJsI9I/YQPfM/cT1ALOY9opWUPRFxyT33rX89TyIYPoCXYz06j689YjoyPfQK\r\noT3VE4g9LESBPQrxnz3cCAg9jDskPdCUdT33RHU9Ek2mPfIriT2GTLk9erDIPfU5cT1QnoY9pBl0\r\nPd+7Pj32fWo9xBaLPeMwpz2dpIg9NzuOPZx7Uz12+1A9XeiaPQBcPD3E1X09/gtzPTKHlD3EN5E9\r\nvkp6PReDnz1+WZY9XZmZPVCjiT2sUK09JrsWPUBluz2eqjg9mViYPXSnaD0C0YI98mOyPSCjijxk\r\ngxU9cxwlPZzRLD030JY9yVRQPbwLST3m+8Y9IV2fPUfWij00P/s8fWpHPSCBXj26LR89kNulPUA8\r\npj2an6k9dvQVPcq4bz2E8b88aWJKPW5lnj3pq089ZL1FPbTfTT0KSJA9QDBDPaJaQD0YkKA90PiP\r\nPd+kPT3hizs9pqIXPQxEGD1PNoo9cuzcPBRcRT2NdoQ9TG3HPWITST1whsA9wsUUPXfQIT3iwCY9\r\nDhy9PfFfvzzcZLA8ktRfPSwoRz2ei/Y8z2ODPWbkJj0wxyA92TGPPbQibz2vEXs9YBRfPQ528jwi\r\nWkA9DPcSPdSTnTzRk5g9TNd2PYXqNj2tiTA9S4IePaUkKz0kEJ89xCURPWq9YT1ad2o9oOa7PN7f\r\nQD14zVw9cZCbPc/jij2ymlQ92u0hPaaPYD1Osos9SAOHPY3wMz1I8Sc9gQyDPde7Nj0oBj49edwe\r\nPUaoET00ALk8psBnPYkCYz2JjzI9pV6QPcZACT1F8Ts9ZtcWPV6xAj1M1RA9thgiPShI6zydAqA9\r\nU6cBPfoaFT2ISwo9ohC+PWbbHD2eO4M9knX+PC/BIT2w2+o8jrM/PYmyOD1hTF09J27xPFDQFz1S\r\nMTU9GIEPPUpQKT0L4rE98Cz5PDxajD3fR1M9pcVZPWZgLz2dSZU9qRdjPXb97DzIMi89t50uPXW4\r\nBz0ta1I9QZINPV0j6D2eNGk9Ovk6PSvODz20Oik9dr1KPVBq3DwjnjI9QLrRPG7HQj0xul09wxVh\r\nPePaRz0cWhs9hEV0PQei6zxSETo9DmkZPboMIT3VfO08sDcBPdixSz0uF2c9ClqvPIEVVz2PKAs9\r\n4c4mPcIFFD1QSiQ9G8gcPcukxD19pkk9WNltPX3HFj3pbeY8W9A6PVJa/TwH7+Y8w2ACPYR+nDwK\r\nVtQ81BtjPR/QQD3mhLE8zrn/PEHldD1E5Aw9+IlAPTJqGT0ZWbo8RkPsPKofED1OTa09UvCLPQeZ\r\nOD286A89ykxJPQHEiDxnu8c8FPcrPeSe6zxanow97xkXPVx00Tx0Gpo9VxbZPIcydTxmBfQ8DSIZ\r\nPYSvID3ihSE97WAfPdW0HT1LWx09wcAdPdiBHT2GNRw9aJwbPfBbHT0LoRs9I3sbPe2tGj3n5ho9\r\nfcUaPb39Gj1qxRk9PToaPe2RGj28mhk9hJEZPWU8GT1+vRk9YkkZPeG0GT2X4Bg9QaEYPYK2GD2Y\r\nYxg9OBUYPW3FFz2Tnhc9wDgWPTlFFz1j8BY9s5sXPY/DFz3UsRY9CfgVPQptFT0SHhY9UncVPffr\r\nFT1ydRU9PQkVPRxYFT2cFhQ9PE4VPa7eFD3eJBQ93skTPZ9GFD3r0BM9ENMTPbK4Ez0ojxM9dMcS\r\nPfl6Ez2UKRM9KnUTPZJKEj3+tBI9vakSPZJpEj0a1BE926IRPUl7ET3zVxE9/BASPW5JET23/hA9\r\nmeQQPXy7ED3rHhE91ZcQPUMSED3gTBA9nxMQPf80ED1GcQ89y68PPW2BED1sGw89S8cPPYBFDz0j\r\nrw49o/0OPRJ5Dj0MQw49UP0NPUDFDT0iRw090J0NPUeoDT3Neg09e/4MPY5FDT0XLA09k6YMPV5A\r\nDD0rxQ09PPkMPWjsDD27jg09rKIMPX8kDD2A1gs9pUQLPWC/Cz2giAs97RkLPSMRCz2S+gs9SUUL\r\nPU+nCz0Awgo9N44KPUsqCz0w7Qo91RMKPcywCT2dXgo91lsLPeTUCT1S+wo9MiYKPYbFCT0xhwk9\r\nSgsKPWGmCT3bOgk9ytMJPf56CT0Cpwg9Zb8IPeWYCD1d1wg9XN8HPbniCD2/0Ag9XREJPcOTCD32\r\ncwc9ZiUIPTZnBz2q4Ac9SDYIPdlaBz3/fQc9g6IHPb6iBz1NPAc9tH8HPTn6Bz0WZwY9hx0HPSMh\r\nBz3/4AY9DsAGPfhvBz1u5gU9Ec8GPWW7Bj09ugU9ZcQGPXMmBj2nggY9nBUGPa/RBT2UbwY92b0G\r\nPZ8VBj2fsAU9fwIGPWr7BT0+XQU9MjsFPUhbBT0uqgU9F1YGPQKlBD0XWQU9ZBEFPdlUBT1uagQ9\r\ngNcEPXZeBD0dDQQ99nAEPSXmAz3tDgQ9DDcEPf+0Az3OPQQ9WgQEPSoFBD1BMgQ96gQEPZu+Az1G\r\n2QM9M88DPRhiAz26QwM9BTwDPRIcAz2aAQM9BKICPbJXAz1nKAM99iwDPenDAz2fzQM9XUkDPeX/\r\nAj1zHwM9PqICPV7pAj1tUQM9vnsCPU/8Aj2GWgI9O9MCPQafAj3uQwI9upkCPY2UAj1UUQI9iQID\r\nPTrCAj2cGwM9niADPbEFAj2CcgI9IpYCPQ8QAj20eQI9YDUCPaZDAj15+AE9blsCPWJQAj3ahgI9\r\nCfgBPapuAT2iFQI9+hACPVdVAT3DmwE9U8kBPWp1AT0OdgI9n+4BPSUaAj094QE9ivQBPaZYAT1V\r\nKwE9PbUBPTafAT0deQE9lDMBPdOlAD0EmAA9x5IBPSTPAT3StgE98MsAPbGDAT1SBAI9n60APUNa\r\nAD12qAE9CzUBPf1XAT37XQE9wCYBPRvsAD14YgA9Hf8BPVtbAT3T3wA95i0BPTxQAD0McAE9RbkA\r\nPWaeAT0dqQE9qKABPUVIAT1f8gA9qHsAPe9fAT24SgE9kyIBPQESAj0ucgE9mLkAPQ==",
                                  "noiseTrainingType" : "default"
                                },
                                "metadata" : {
                                  "effectIndex" : "0"
                                }
                              }
                          ],
                          "start" : 3038,
                          "duration" : 8727,
                          "mediaStart" : 0,
                          "mediaDuration" : 8727,
                          "scalar" : 1,
                          "animationTracks" : {

                          }
                        }
,
                    "start" : 3038,
                    "duration" : 8727,
                    "mediaStart" : 0,
                    "mediaDuration" : 8727,
                    "scalar" : 1,
                    "metadata" : {
                      "WinSubProjectDisplayName" : "",
                      "clipSpeedAttribute" : false
                    }
                  },
                  {
                    "id" : 28,
                    "_type" : "VMFile",
                    "src" : 8,
                    "trackNumber" : 0,
                    "attributes" : {
                      "ident" : "tao_combo"
                    },
                    "effects" : [

                    ],
                    "start" : 11765,
                    "duration" : 75,
                    "mediaStart" : 0,
                    "mediaDuration" : 75,
                    "scalar" : 1,
                    "metadata" : {
                      "WinSubProjectDisplayName" : "",
                      "clipSpeedAttribute" : false
                    },
                    "animationTracks" : {

                    }
                  },
                  {
                    "id" : 29,
                    "_type" : "UnifiedMedia",
                    "video" : 
                        {
                          "id" : 30,
                          "_type" : "VMFile",
                          "src" : 13,
                          "trackNumber" : 0,
                          "attributes" : {
                            "ident" : "VD_tao_combo"
                          },
                          "effects" : [

                          ],
                          "start" : 11840,
                          "duration" : 3879,
                          "mediaStart" : 0,
                          "mediaDuration" : 3879,
                          "scalar" : 1,
                          "animationTracks" : {

                          }
                        },
                    "audio" : 
                        {
                          "id" : 31,
                          "_type" : "AMFile",
                          "src" : 13,
                          "trackNumber" : 1,
                          "attributes" : {
                            "ident" : "",
                            "sampleRate" : 44100,
                            "bitDepth" : 16,
                            "gain" : 1.0,
                            "mixToMono" : false
                          },
                            "channelNumber" : "0,1",
                          "parameters" : {
                            "volume" : 2.7142857142857
                          },
                          "effects" : [
                              {
                                "effectName" : "NoiseReduction",
                                "category" : "categoryAudioEffects",
                                "parameters" : {
                                  "denoiserAmount" : 20.0,
                                  "denoiserThreshold" : 0.0,
                                  "noiseProfile" : "vGMiRll7Q0Q0isJFcga+RF8bOkRRbgdEoQ/SRSURHUQKMXdCbz/ZQnNKckPolUZDtfvoRJ5rkEN/\r\n/YhCwF+6QkbQKUIM8JNDIlyFRM9QJ0NfXjRD2Ef0Qk49H0P6qJdE3YuMQ2Cg6UMu1u5DiWmCQ40n\r\nPkPwL+FEN8kTQ45wPkPurMxCzlYLQk4NV0JYMadBr0tCQI4610CW26JBxo/gQflcPkL7WAVD+WNw\r\nQWIEyELuqXpBxJwHQVoaxUE2h59CTq4MQij/L0GQ32FB1OruQCkXpkJ8VJxCx5AIQgc0B0N38HZB\r\n9AIFQ6tQWEMXMp9CSQoYQmzPm0C3gCpBB8ezP0G6vECARftAzhb0P5hzKz+Wk7s/ydSbP/czmUB9\r\n8z1AROqZQA0yez9Raao/I7gEQDnhlD/2cMA/NnNbP5NFvj58HyA/lq81P07BWj8mRG8/0MWWP/fo\r\nHT8le5Q/M52kP7f00D8eNPg/utcmQAn5AEB/INo/ntCdP/5z/D/1i0VAh+qVP5bsJ0Bgydg/ShkL\r\nP0KkSD8BMgNARXPXPwPUgD/958c+4lnhPwLcuj8+b0A/582cPqBLNz85aBw/dxOePx5cND99ECZB\r\nuB7rQPUpAkAPsJg/xN8wQfYwkkGxZU1CE4sNQinBCUFvmdVAnvIDQjHbsT9BpMBBtsNmQMRvvz96\r\nzZI/iumsQBOtmUD2GD1BtAS4P6MoUkAIhR4/TzJ9P4iTrD9uaTM/cWBpQG/GLz8PD4g/CASlPzaV\r\nrj9hbjhAkg8QQMPEeD6I+xM/4ZGDPyClVj/wzypA0tbpPyec3kCXv55Ae3ShQJ/JBUFHNhpB4ESG\r\nQTjHo0D8bD5A4qNKQIlJfECOSbg/qbiTQKgcnj8yuqo/drtrPjWyPj4ND0o+a2CrPuuzKz9V92k+\r\n4E+fPp8ZQj8bDOM+Ek1aPlBYaD5euBw+H3yEPYi4nD2v5AM+oXsFPvt+pD7QstY9Ve9DPtyb5z3g\r\ninQ+dqIsPy+RET+1Dnw+rT+aPqpl5j2UjDE+iihyPksdBz/qrJM+fR4UP9tXgT6S5A4+eVE7P9aW\r\nWT4/bpc9KolHPiA5lz7Ddok9BVfjPfxN2j3UU6Q9+A9VPYSpiz3wtbI9B4XhPQxLlj0l2pQ9QsH8\r\nPPvJ1z2oyq49HJvQPWnAFD5a4MY9iNeSPSjhdT3WShE9kZmIPahuVz0tRJo9LJgaPTDEaz0cehw9\r\nYruPPT0vUT0SaTU91ig5Pcl8Sz0wWjs9FUScPSFFET2xUKo92lpjPW8AVD0v7BI9stWIPfVfWT0+\r\nxX89JC00PUNbJD2deyE9otgyPeXz9jy8yiQ9zLy5PBRLbj10iIg9FMZTPQw/QD0pLj09hdYSPWoU\r\nhD1XWxY9g29OPT+yJj10OdY8TeddPTAKGD2IdDs9oqgXPcueHj0ssBc9Xl4bPW6LLz3Sgs48YLI+\r\nPcp61jw5Ct88hON4Pe1kMD29fjY9zgowPRa5ED30CCs9J9AhPUZPKj0NRdo8VHsPPZnwmzxLkU09\r\nbpT2PHptKT1USrk8NK6mParlBD24lHc9wrrzPBzWvDwcqdM8VSqWPRtFVD2mVmo9wIKXPO53PD13\r\niwY9FlNxPebvnzzDbH49QHPdPOYGjTzWEfU87/+QPYUSEz1PcRo9lb8ZPaTDQz0uw+Y8VsYaPbWo\r\n7zwtLCA95jegPCzY2DwOHqY81lnDPLvMvTzwEwQ9vurfPOjDFT1aTb08aAtDPff1Cj0xvy89anwE\r\nPQhRAD0rFAQ9rA4oPaT1mDx8RgY9BofEPOzj6Dwrpjg9tvPvPNRP5TyVlSM9/aHfPDNgyzzVtxQ9\r\nZqQkPeMQ1jyZFxI9H1GzPBwA8TzOHZE8WD//PBgigTwAHTw96WF1PH6trjxywe48NUwQPS5YxDzG\r\nYwQ9YOf6PGJ/4zza9f48oOC/PN9wrjyNzyM9k4bAPIlxkjzfc5M8DBJEPQrKrTzhN7s8OLS8PFSC\r\nKz3RW688kXAIPbZj9zz167w8GoykPLms4zxXIbk8+xUHPQtiAz1iac08xsLQPFBTAT1CSqA8ZKHa\r\nPNv3CT23F548+KK/PCwzZD3Q/9Q8C6vqPK6aFj0mQww98RSPPOMPMD04SsE8rXXHPKB0Wzyuf7I8\r\nV8iBPIatwjyRx6081kSXPLBH1jycPco8n7vYPEFxAj0GNR89uNcNPVTXbTxwGQk9IjGtPLN6BD3e\r\n1ZI8FticPFGxwDx6awo965coPKUfNT18JrI8GBLvPJV9ojxM/Ys8/Fi9PB6YwzzRkKw8Q+XYPKOp\r\nPzxn6ZE8bDAcPRxGvzw0g3U88EIwPRxbwTxiyaQ8KjfkPMbNujxv56s8NL/xPGJflTwvaL48oUUg\r\nPchRJT3LQJg8zIvtPNLUhjxel/Y8d7CePKhqgDw1F8I81vX0POCbsTye/6k8wWqbPEHOJDw7Q208\r\naS+8PL69BT3MvbM8hBuOPEy+nzwQ9gE9EGqsPME+gjzWykY9qwFXPPIPWjwk7Nk8yo26PFGLgjwr\r\n9MY8CtcfPKfoQz2xQKQ8XCGpPMZdgjyV9Qg9eFdkPARixjz83as8a1sQPc2gbzxy69Y8oGYlPHVI\r\n8jwW0KY8RwmFPC6dzjyFUGQ86KKCPAYC9DwNDX08JrWkPJpuNjzUZ3k8RKiGPJrBozztaX48f+uI\r\nPNvNujys8nc86Ps9PHx/7Dw1nHE84pF8PMtPeTyH+7A842iUPIArwjynuDI8chCxPD3F3jyOc/Q8\r\nBAOMPNfaqTw0qlo8Mc6aPEqAhTztvzw942jgPPG/yjybOC88kVqHPCU0nTxZNRI9NV/lO1O9Bz3+\r\nmUs8ShdUPMh5gzwC17U8dbpEPMQqXjymNJM8R/fJPOxGPzye9yM9UM4KPSUwWDzTS1s8Nq+NPETP\r\nXzwB4Tg8UQ2mPCbmTzxshnY8L9+TPACyIDyVe1w8UDQGPZ6nYjy4DnA8AiQ8PBbcZDwnJGw8bYlW\r\nPC+Mlzw67gw9XadxPNJzLzyVeqI8+xzCPJTTbDyF5dU8at0HPczpGjzwam08fWFKPMMNdzyZUgA8\r\n+AN9PPWo3zy+LFs8e6lXPFkYFzzm77s86RfJPCypZzzwZJI8wT9PPAda2jyZTkY8+EduPCehnjya\r\nghk8XItwPITlkDzdEG08047JPDqSHzwwops8mMKYPAaqkTwiIes75FPqPEy1kjz85Wc8LQ4QPFw/\r\nSjyWbkQ8ePuRPDlWDTxiSUk8A3BuPAkulDwZCYY8n2WqPKM2ozweLmg88MU2PEb+JjxMWe885tgW\r\nPeBSxjzQDJc8mOsJPB7k+Du1EwY8EIZUPLOEvDy0jb08klvvOxeX3Tx0sSM8t7NvPNi7UjxwPSU8\r\nGbbBPNA3rjyz8lM8YVOXPMCQmjuAYgY8a97OO+3G4TwEvVY8SnOSPBS2ODzxyyo8BgDsPEA3Pjyv\r\nSlE8gEawPC1m2jvTmYI8g32NPMUPoTwqaDk8FwKOPNXJWTxFdEo9Gyg3PAjwmzztQSc8gJvbPN9Y\r\nUDyow7E8xhWIPP5+xDyBGIk8m+R/PIcf4jw8sXw84rFfPId4Tzyggv4852arPEaghTxvzFs8sAP0\r\nOwJNHjySdHU8SGS/PBP6Bj04V0s8PKVcPAbVqDw7s0w8f4CnPOuNhDz14iA836KQPMx77DsnxBE8\r\nmYCPPPU4Njx0E3U85DJgPD/KijzwGnY8HDUaPKvV7Du/KWE8Wr8BPOChajz9psM8cJkvPUUp6zvZ\r\nJ4M8Hn3+OxWhkDxp2Dw8MmI4PFT0nDwc5B89JEgVPMh+Nzy1ahc8UtEaPKYOuTughzc8NXcyPISc\r\nGT0aczs8rRmcPNxfFjzI7fU7oCUiPLiKYDwEXeY8opyYPFw1ozxz8xk8zEEhPCz/BTxm+CQ86Ewd\r\nPHg6LDzzq807Rl/gO1to3TsszNc7XtPUOxmvzjutvMo7Nb3MOzgUzDtY2sY7iJHJO4YcxzvPRMQ7\r\nb/vEO26bxjsQEsY7YRnFO025wjsWHcA7sVPBO6e9wDvnJMA7aYfBO/fHvjt3Mr874Li9O066vjvE\r\n8L07FAy7OzjKvDtcQ7079dK8O1cpujvdtbk7Tii7O3QhvDsc07k7xne4O1P8tDsARbk78hu5O2mK\r\ntzu4lLg7p6e1O4dxtzuGL7c7G/y1OziatTvjiLQ7vLqzO1iHtjtSIrU7sl6zOxlJtjt6eLM7gFyz\r\nO/aCsztI7rM7SK+yOxcCsjtDU7A7/wSzO4eItDte4bE7lNatO2IysTsA5q07UBmxOxcvsDt0rLA7\r\nx+awO+epsDs0ObE71M+vO8eWrzsRGrA7baWvO+4drztEia07M16tO863rDu8V647+BKrO5lzqzuq\r\naK076q2tO7FgrDvF56o7S/StO960qzsmTqg7v/CqOwIBrTtIFqw7FciqO+g2rDvAg6w7Ui+pO6cG\r\nrDs6rqg7LHepO0+mqDuT2ao7kcqoO3gKqjuEyak72/inOy+EqTv/cak7C4qpO/EFqTvaXqk7YrWm\r\nOxYbpzuO56c71xSmO9a6pzvHsKg7oYKoOwYepzuZtqg7k16kO2OFpzt1sKQ7S8KnO7QXpzupNaY7\r\n85WmOyxopDvb4qU7KTOmO1VupDsK9KI7PmekO0/yozunjaM7eMujO/QDpTtjvaM7ASmkO6tDozu5\r\nnqQ73XCiO0WVojuOQ6M7h++kO+TYoTvEH6I7faqjO8z/oDvHvqM7PEGhOxdYojvBZqI7aKKiOwwn\r\nojtzvaA7NKufO3XOoTsEvKE7EvOeOwncojs12KA74wWfO3FJoTvvbqI7kwKhO8jzoDs+ZqA7I+qg\r\nO1KTnjtY8p472LSgO31loTsKLKA73s+gO5IQnzu6mJ87K1CgO4xhoDvFJpw7B/WeO54doDvMwp47\r\nqxqhO9FhnjuilJ87v4GcOyEHnjuRPqA7NoKeO7MFnTsUSJ4709ycO3C0nTtNfZ07rAagOxkYnztN\r\nI547ChKfOyNvoDsmVZ07Av2bO+yNnTvml5w73rWcO39vmzu+wJo7dX6dO7VSnDurLJ07m6acO/4y\r\nnDt1QJ07hEKcO3konDsUiZs7KE+bO2C6nDvTSp07+EOcO+iNmjuY5Jo7frGdO88TmTvhEZs7laOc\r\nO7UmnTthNJw7M8+cOyDbmzvv3Zk7rYiZOwhymTttxpk7jT+aOxKKmjuKvJs76uGaO1admzvzOJs7\r\nGk2cO+26mDtTc5w7GMmaOx9vmjuq7pk79W2aO28kmTsw/po7ZZGbOyGdmzteqJs7WC6bOxYYnDsU\r\ncpo7CwOaO7kSmjspmJg7B9maO9zUmDuJUZs7j9uaO5NCnDtNl5g7iTybO7zEmjsZLpo7XpCZO7m6\r\nmTspv5o7zceZO1eSmjvnd5k7RleZO2DLmjtyEpo7W8OaOy6dmTvFg5o7UqiZOxnWmTuP15k7zCyY\r\nOyE8mztmIZs7UAObO4b6mTuO/5s7Bl+aO4AtnDtAqZk7WtKbOw3Jmzvv2Jk7cCeXOwJDmTu8YyJG\r\nWXtDRDSKwkVyBr5Eaxw6RDhuB0ShD9JFJREdRAoxd0JvP9lCc0pyQ+iVRkO1++hEzmyQQxH+iELA\r\nX7pCQtcpQgzwk0MiXIVEIFAnQ19eNEM3QvRCTj0fQ3qpl0SHjIxDYKDpQy7W7kOJaYJDjSc+Q/Av\r\n4UQ3yRNDjnA+Q+6szELOVgtCTg1XQmE2p0GvS0JAjjrXQIHYokHGj+BB+Vw+QpxYBUOGaHBBYgTI\r\nQu6pekHEnAdBmg3FQbaEn0L1rwxCs/wvQSriYUHU6u5AABWmQqJNnEKzjQhCNDMHQ2r9dkH0AgVD\r\nq1BYQxcyn0JJChhCbM+bQLeAKkEHx7M/Qbq8QIBF+0BkBvQ/mHMrP5aTuz/J1Js/ezGZQH3zPUBE\r\n6plA/i97P1Fpqj8juARAOeGUP/ZwwD82c1s/k0W+PnwfID+WrzU/TsFaPyZEbz823JY/7ccdP5CW\r\nlD8znaQ/t/TQPx40+D/TxSZACfkAQH8g2j+e0J0//nP8P/WLRUCH6pU/G+QnQGDJ2D9KGQs/QqRI\r\nP6k7A0C2Rtc/naCAP/3nxz7iWeE/Aty6Pz5vQD+45Zw+oEs3PzloHD93E54/Hlw0P80DJkG9K+tA\r\n9SkCQA+wmD9s1TBBmiySQQBrTUITiw1CKcEJQW+Z1UCe8gNCMduxP0GkwEG2w2ZAxG+/P3rNkj8B\r\n7axA1aWZQPYYPUG0BLg/UyNSQAiFHj86gn0/8KGsP25pMz9xYGlAf60vPw8PiD/sJ6U/1JmuP2Fu\r\nOED4DhBAw8R4Poj7Ez+Kc4M/IKVWP4nfKkDS1uk/F6feQJe/nkB7dKFAn8kFQeQuGkHgRIZBOMej\r\nQPxsPkDauEpAfEF8QI5JuD+puJNAqByePzK6qj+B1Ws+edk+Pg0PSj5rYKs+67MrP1X3aT72PJ8+\r\n+zRCPxsM4z4STVo+rE1oPl2fHD4ffIQ9iLicPa/kAz6hewU+paOkPtCy1j1V70M+3JvnPevndD6e\r\nhCw/L5ERP7UOfD6tP5o+qmXmPTkkMT6MC3I+FDkHP8e6kz59HhQ/21eBPrT9Dj7YVTs/1pZZPj9u\r\nlz0qiUc+IDmXPsN2iT0FV+M9+e/ZPdRTpD34D1U9hKmLPfC1sj0HheE9DEuWPSXalD1Cwfw8+8nX\r\nPajKrj0cm9A9acAUPlrgxj1unpI9KOF1PdZKET1MuIg9qG5XPd6smj2j1xo9KGZrPRx6HD1iu489\r\nPS9RPRJpNT3WKDk9yXxLPTBaOz0VRJw9jE4RPbFQqj3aWmM9bwBUPS/sEj2y1Yg99V9ZPT7Ffz0k\r\nLTQ9Q1skPZ17IT2i2DI95fP2PLzKJD3MvLk8FEtuPXSIiD0UxlM9DD9APSkuPT1SKxM9ahSEPVdb\r\nFj2Db049P7ImPXQ51jxN5109MAoYPYh0Oz2iqBc9y54ePSKVFj1eXhs9bosvPdKCzjxW+z49ynrW\r\nPDkK3zyE43g97WQwPb1+Nj3OCjA9FrkQPfQIKz0n0CE9Rk8qPQ1F2jy8KBA9mfCbPID5TT1ulPY8\r\nem0pPVRKuTw0rqY9quUEPT7Adz3CuvM8HNa8PByp0zxVKpY9G0VUPaZWaj3Agpc87nc8PXeLBj0W\r\nU3E95u+fPMNsfj1Ac9085gaNPNYR9Tzv/5A9hRITPU9xGj2pixk9pMNDPS7D5jxWxho9tajvPC/A\r\nID3mN6A8LNjYPA4epjzWWcM8u8y9PPATBD2+6t886MMVPVpNvTxoC0M9M7kMPTG/Lz1qfAQ9CFEA\r\nPSsUBD0ApSs9pPWYPHxGBj0Gh8Q87OPoPCumOD228+881E/lPJWVIz39od88M2DLPNW3FD1mpCQ9\r\n4xDWPJkXEj0fUbM8HADxPM4dkTxYP/88GCKBPAAdPD3pYXU8fq2uPHLB7jw1TBA96UzAPMZjBD1g\r\n5/o8Yn/jPL6f/Dyg4L883R6tPI3PIz2qk788iXGSPBrykjwMEkQ9CsqtPOE3uzw4tLw8VIIrPdFb\r\nrzyRcAg9tmP3PPXrvDwajKQ8uazjPFchuTz7FQc9WHkCPWJpzTzGwtA8UFMBPUJKoDycKto82/cJ\r\nPbcXnjz4or88LDNkPdD/1DwLq+o8fMIWPSZDDD3xFI884w8wPThKwTytdcc8oHRbPK5/sjxXyIE8\r\nhq3CPJHHrTzWRJc8sEfWPJw9yjwuZNk8QXECPQY1Hz241w09VNdtPHAZCT0iMa08s3oEPd7VkjwW\r\n2Jw85py/PHprCj3wcSc8pR81PXwmsjwYEu88lX2iPEz9izz8WL08HpjDPEkprTxD5dg8o6k/PGfp\r\nkTxsMBw9HEa/PDSDdTzwQjA9HFvBPGLJpDwqN+Q8xs26PG/nqzw0v/E8Yl+VPC9ovjyhRSA9yFEl\r\nPctAmDzMi+080tSGPF6X9jx3sJ48qGqAPDUXwjzW9fQ84JuxPJ7/qTzBaps8uHQoPDtDbTxpL7w8\r\nvr0FPcy9szyEG448TL6fPBD2AT0Qaqw8wT6CPNbKRj2rAVc88g9aPCTs2TzKjbo8YamCPCv0xjwK\r\n1x88RjhFPbFApDxcIak8xl2CPJX1CD14V2Q8BGLGPPzdqzxrWxA9zaBvPHLr1jygZiU8dUjyPBbQ\r\npjxHCYU8Lp3OPIVQZDzoooI8BgL0PA0NfTwmtaQ8mm42PNRneTxEqIY8msGjPO1pfjx/64g82826\r\nPKzydzzo+z08fH/sPDWccTzikXw8y095PK73sDwIyJI8gCvCPKe4Mjx3WrA8PcXePI5z9DwEA4w8\r\n19qpPDSqWjwxzpo8SoCFPO2/PD0vnOE88b/KPJs4LzyRWoc8sHKcPKj0Ej01X+U7AywJPf6ZSzxK\r\nF1Q8yHmDPALXtTx1ukQ8xCpePKY0kzxH98k87EY/PJ73Iz1Qzgo9JTBYPNNLWzw2r408RM9fPAHh\r\nODxRDaY8JuZPPGyGdjwv35M8ALIgPJV7XDxQNAY9nqdiPLgOcDwCJDw823tkPCckbDxtiVY8L4yX\r\nPDruDD1dp3E80nMvPJV6ojwRbcI8lNNsPIXl1Txq3Qc9zOkaPPBqbTx9YUo8ww13PJlSADz4A308\r\n9ajfPL4sWzx7qVc8WRgXPObvuzzpF8k8LKlnPPBkkjzBP088qXncPLRERjz4R248J6GePJqCGTxc\r\ni3A8hOWQPN0QbTzTjsk8OpIfPDCimzxxo5g8BqqRPCIh6zvkU+o8TLWSPPzlZzwtDhA8XD9KPJZu\r\nRDx4+5E8OVYNPGJJSTwDcG48CS6UPBkJhjyfZao8ozajPB4uaDzwxTY8Rv4mPExZ7zzm2BY94FLG\r\nPNAMlzyY6wk8HuT4O7UTBjwQhlQ8s4S8PLSNvTySW+87F5fdPHSxIzy3s2882LtSPHA9JTwZtsE8\r\nad2tPLPyUzxhU5c8wJCaO4BiBjxr3s477cbhPAS9Vjxv15E8FLY4PPHLKjwGAOw8QDc+PK9KUTyA\r\nRrA8LWbaO9OZgjyDfY08xQ+hPCpoOTwXAo481clZPEV0Sj0bKDc8CPCbPO1BJzxyGtw831hQPKjD\r\nsTzGFYg8/n7EPIEYiTyb5H88hx/iPDyxfDzisV88h3hPPKCC/jznZqs8RqCFPG/MWzywA/Q7Ak0e\r\nPJJ0dTxIZL88E/oGPThXSzw8pVw8BtWoPDuzTDx/gKc8642EPPXiIDzfopA8zHvsOyfEETyZgI88\r\n9Tg2PHQTdTzkMmA8P8qKPPAadjwcNRo8q9XsO78pYTxavwE84KFqPP2mwzxwmS89RSnrO9kngzwe\r\nff47FaGQPGnYPDwyYjg8Xu+cPBzkHz0kSBU8yH43PLVqFzxS0Ro8ijq2O6CHNzw1dzI8hJwZPRpz\r\nOzytGZw83F8WPMjt9TugJSI8uIpgPARd5jyinJg8XDWjPHPzGTzMQSE8LP8FPGb4JDzoTB08eDos\r\nPPOrzTtGX+A7W2jdOyzM1zte09Q7Ga/OO628yjs1vcw7OBTMO1jaxjuIkck7hhzHO89ExDtv+8Q7\r\nbpvGOxASxjthGcU7TbnCOxYdwDuxU8E7p73AO+ckwDtph8E798e+O3cyvzvguL07Trq+O8TwvTsU\r\nDLs7OMq8O1xDvTv10rw7Vym6O921uTtOKLs7dCG8OxzTuTvGd7g7U/y0OwBFuTvyG7k7aYq3O7iU\r\nuDunp7U7h3G3O4Yvtzsb/LU7OJq1O+OItDu8urM7WIe2O1IitTuyXrM7GUm2O3p4szuAXLM79oKz\r\nO0jusztIr7I7FwKyO0NTsDv/BLM7h4i0O17hsTuU1q07YjKxOwDmrTtQGbE7Fy+wO3SssDvH5rA7\r\n56mwOzQ5sTvUz687x5avOxEasDttpa877h2vO0SJrTszXq07zresO7xXrjv4Eqs7mXOrO6porTvq\r\nra07sWCsO8XnqjtL9K073rSrOyZOqDu/8Ko7AgGtO0gWrDsVyKo76DasO8CDrDtSL6k7pwasOzqu\r\nqDssd6k7T6aoO5PZqjuRyqg7eAqqO4TJqTvb+Kc7L4SpO/9xqTsLiqk78QWpO9peqTtitaY7Fhun\r\nO47npzvXFKY71rqnO8ewqDuhgqg7Bh6nO5m2qDuTXqQ7Y4WnO3WwpDtLwqc7tBenO6k1pjvzlaY7\r\nLGikO9vipTspM6Y7VW6kOwr0ojs+Z6Q7T/KjO6eNozt4y6M79AOlO2O9ozsBKaQ7q0OjO7mepDvd\r\ncKI7RZWiO45DozuH76Q75NihO8Qfojt9qqM7zP+gO8e+ozs8QaE7F1iiO8FmojtooqI7DCeiO3O9\r\noDs0q587dc6hOwS8oTsS8547CdyiOzXYoDvjBZ87cUmhO+9uojuTAqE7yPOgOz5moDsj6qA7UpOe\r\nO1jynjvYtKA7fWWhOwosoDvez6A7khCfO7qYnzsrUKA7jGGgO8UmnDsH9Z47nh2gO8zCnjurGqE7\r\n0WGeO6KUnzu/gZw7IQeeO5E+oDs2gp47swWdOxRInjvT3Jw7cLSdO019nTusBqA7GRifO00jnjsK\r\nEp87I2+gOyZVnTsC/Zs77I2dO+aXnDvetZw7f2+bO77Amjt1fp07tVKcO6ssnTubppw7/jKcO3VA\r\nnTuEQpw7eSicOxSJmzsoT5s7YLqcO9NKnTv4Q5w76I2aO5jkmjt+sZ07zxOZO+ERmzuVo5w7tSad\r\nO2E0nDszz5w7INubO+/dmTutiJk7CHKZO23GmTuNP5o7EoqaO4q8mzvq4Zo7Vp2bO/M4mzsaTZw7\r\n7bqYO1NznDsYyZo7H2+aO6rumTv1bZo7bySZOzD+mjtlkZs7IZ2bO16omztYLps7FhicOxRymjsL\r\nA5o7uRKaOymYmDsH2Zo73NSYO4lRmzuP25o7k0KcO02XmDuJPJs7vMSaOxkumjtekJk7ubqZOym/\r\nmjvNx5k7V5KaO+d3mTtGV5k7YMuaO3ISmjtbw5o7Lp2ZO8WDmjtSqJk7GdaZO4/XmTvMLJg7ITyb\r\nO2YhmztQA5s7hvqZO47/mzsGX5o7gC2cO0CpmTta0ps7DcmbO+/YmTtwJ5c7AkOZOw==",
                                  "noiseTrainingType" : "default"
                                },
                                "metadata" : {
                                  "effectIndex" : "0"
                                }
                              }
                          ],
                          "start" : 11840,
                          "duration" : 3879,
                          "mediaStart" : 0,
                          "mediaDuration" : 3879,
                          "scalar" : 1,
                          "animationTracks" : {

                          }
                        }
,
                    "start" : 11840,
                    "duration" : 3879,
                    "mediaStart" : 0,
                    "mediaDuration" : 3879,
                    "scalar" : 1,
                    "metadata" : {
                      "WinSubProjectDisplayName" : "",
                      "clipSpeedAttribute" : false
                    }
                  },
                  {
                    "id" : 32,
                    "_type" : "VMFile",
                    "src" : 6,
                    "trackNumber" : 0,
                    "attributes" : {
                      "ident" : "sp_file_excel"
                    },
                    "effects" : [

                    ],
                    "start" : 15719,
                    "duration" : 75,
                    "mediaStart" : 0,
                    "mediaDuration" : 75,
                    "scalar" : 1,
                    "metadata" : {
                      "WinSubProjectDisplayName" : "",
                      "clipSpeedAttribute" : false
                    },
                    "animationTracks" : {

                    }
                  },
                  {
                    "id" : 33,
                    "_type" : "UnifiedMedia",
                    "video" : 
                        {
                          "id" : 34,
                          "_type" : "VMFile",
                          "src" : 12,
                          "trackNumber" : 0,
                          "attributes" : {
                            "ident" : "VD_sp_excel"
                          },
                          "effects" : [

                          ],
                          "start" : 15794,
                          "duration" : 6042,
                          "mediaStart" : 0,
                          "mediaDuration" : 6042,
                          "scalar" : 1,
                          "animationTracks" : {

                          }
                        },
                    "audio" : 
                        {
                          "id" : 35,
                          "_type" : "AMFile",
                          "src" : 12,
                          "trackNumber" : 1,
                          "attributes" : {
                            "ident" : "",
                            "sampleRate" : 44100,
                            "bitDepth" : 16,
                            "gain" : 1.0,
                            "mixToMono" : false
                          },
                            "channelNumber" : "0,1",
                          "effects" : [
                              {
                                "effectName" : "NoiseReduction",
                                "category" : "categoryAudioEffects",
                                "parameters" : {
                                  "denoiserAmount" : 20.0,
                                  "denoiserThreshold" : 0.0,
                                  "noiseProfile" : "UmWMRgmilkR5535F7mqZRB8a00POLl5D/uHNQmckoUJTR7JCy9C/QrfCHkLCXttCgmccQuK1FkJF\r\nYpxBq3dlQX6SsEFVHl5CndjsQVdXnkF2+mVBBl0MQVYfjEGSx4JBius0QVGCekEQKE1CWRMUQpIt\r\no0JGVL9CICI9Q7BOIUOyMQxDIAi1QHfHpUFxuudBiMUFQvPUBEMHsRZDQgfzQveGjEIFTwFC8RwB\r\nQZZjakFFDO9Cd8yDQzy6S0OqqJdDePVsQwO1o0LLBhBDgPwsQ+QlGELm7mdC9KayQzSkvUMw8opD\r\ns2xMQyWuD0O+kbhAxlsjQoyTH0PM559DLcaPQ5q/FEPcHZRC9LpJQrBmPkM+lN1DmjqQQ0Mh9UG1\r\n65RCf+cWQYl1kEPSndlDsxgjQxnDGEM3IpBDhiq9Q2HPEUFRhrRABpwJQ9ul7UPE7DRDm7VQRPUd\r\nZUTIybxE3iWxRKg+oUNm8K1C4n4OQy9fN0O61B9DrBstQ0MM7UN9K2BE3TUCRD9YNUMMCXNDHCsH\r\nQyegDESOEYZDZhy0Qho1bUSBiw5EoOGBRBQezkNTcpNDzsShQqozNkI1p4RCgwdrQ2QbEkOGFpZD\r\nWuuVQzLIDUKORdlB1sapQkkkDEMcVqlCyuiJQVB5t0O6kKtDJomyRPC+PkTnCvdD0Ig7Q7h+ikJg\r\n81hC9lfjQjKLaUPIp4FDLMWqQ1Sly0Nn0ClE8ii4Q4ZBzUJu2v9CjLB5QowjA0MaIvxDJUZ0Q/mY\r\nU0NNtR9DU6XIQuiX50FFKDlCEroeQpj/cEOCw/ND1mUEQxBBMUNNaRpDDEZtQwv9RUPxczdCsPvM\r\nQc61h0JwODxDfo93Qz+DLENI7g5DJ1SuQSabM0FAFk9CXBQKQtB23kK8yQFDgkzbQqQ9Z0F+OOlB\r\nXk70QVjn3UHkPaVBjCJJQNrMgUAHGwxC/pY8QnZnPUJLsypCEb9CQaYNdkCsyQ5BUzlZQIywJkF1\r\nZkZBOu8MQUNxSEHk7ldB1Re9QTNU8UBvrKo/L0oRQdrfkD8Ag79Au+LZQHzMhkA19ZdBqxLlP39C\r\n/T9YiZ8/ybL5PxwmDz/uZmA/R5oXPzLcjz9ifLw/pUcpQBLhnUAczlBAP9h7QFVzRz/UayE/EI6h\r\nPiHBdD9pS7Y/sgFbP4qxYz8a6e0+9OkqP36zFj8S+Yw+DlkyPpUUTD46P6I/wD8wPxdT6j/jtZw9\r\n38BgP/WjPT+RAGM/V1MyPl1waj5eLI0/BPkzP/SQfz9OAoY/0TPMP2XUJD4LiTg+xvulPonYbT69\r\nMXo+B3cFP4V8gT5X95s+Z5ZwPnFBpj5uZ0w+fdbOPTZCXz7kIgk+K9UOPijtMT587TA+pJtgPuUO\r\nuT1IIgI+vNAZPgrknz0yA/49EmJKPnmY/T1SKec9jiAYPtw4TT79SJo9kIIlPim+2j2Tc6A9iG+7\r\nPZV/Ej6zvhc+ACnyPRxPFD4TLP89955xPV+ubD3yXKo9kZrBPdR7DT4A18I9ojL1PZs8mz1xWZ89\r\nzZT1PVND/D1A56g98EhtPSJc0T1GwL89y7ytPbbP6D3V9NU9HjmwPTuovD2mmIk9eBXDPesECj7a\r\nvqo9IYQGPpIdoD2Dsrk9AFP4PTQIhT2T6zA9wvTFPfU51T0WgVU94iFmPde2uD1tBq892O6GPQLP\r\n9D18S7g9EkQlPU1Y9T0M48Q94Z3wPQlp6T2o2tg9bTXMPZUkqD1AJNE9pMruPSj6Xj3Idmg9Eg1+\r\nPY4M7j2X/8E9ddbGPegEzj1n56I9SonsPT3XtD0aObI9q2q/PTzW4z10Lp49lnS2PVK2hj0SYZw9\r\nhK6tPRV7fT1bwYI9oSSaPVxKZD33wV09bK+dPVa3rz0ugL09zv2LPbwBhj3sXpg9XnmMPXqThT0c\r\nD3w9RubfPcKjkz349gY9jGOcPfs0sT1oM9k9HYkoPUUxqz3wdUI9flifPftUdD3nq8o9GzQwPbYd\r\nRD3aVZY9blK0PQJAmz1V66M9EEJ0PZvMdT2vbM09+eu4PSg/oT3Q0IU9YKU8Pb3SOz19lmw9YPqP\r\nPUABnz3OmF89fpVhPZnSZz1yU7E9937ePZkVrD10mB8+5VQ5PpNA7j0ofbM9NR58PUiflT2eJxM+\r\nzs0DPR85oj1OvlE9ArySPdCbVz18a489uttfPa4rMD1n/KQ9AtaQPRGOaz0bTII9oqH+PGJyDj0p\r\nXRI9HGsUPRqNUD1ZvyM9OD5BParXlz0NNyw9syN2PUd4vjyTiaw9J/toPQxqLT2XZBo9Ps2ZPdAy\r\nID0Rml49Td+gPMJslj3OP5o9kD6TPfxWTT3e/Eo9gwN+PRhVzT1vjls9OMWsPc3zAj4uWlE9htgZ\r\nPaxxrj02XCM9l15hPULAhj3bpCQ9bUESPRGbqD1vUto960VUPXLFfT1cTxI9PnsRPXiBgT1gw0w9\r\nGuKyPV3gTj2Ii/o8Tqo0PbDCmj3gl+g83RCNPVU2Ej0qoGE9Lh8zPX8POT394CA9Rp98PU/cvTx0\r\naGI9zwgLPSw+ED2IF0c9UXQiPYxnWT3+RF09hrKgPZ52lT10Cok9RCVFPfY+XT1IAWI9uSNHPWGO\r\nXT1G1Fc9/FxiPcwS7DyWhCg93OVbPfk5dT2qnLI8964fPeJQDj1z+Ws9LuCLPZMFxjyRzBw9Gh8j\r\nPcTTujxSVVo9gCcPPRxaOz04/vU8k6eVPJzIHz0ZDnE9hOz9PNRLLj2+yzY9wPbtPFPuGj2O0mo9\r\nLCgZPdoYAz1DO7I8RpgTPe3XCz0R2Qs90sAfPbxwMT0AX4k9LshrPadW5zweWxY9qnhiPb6lbj29\r\nxSs9lGTuPO+fyTyuH2g9cjCwPC5bxzwW8gE9233IPZ7EET0vxx098DgsPS2R3TxlVQ890tXZPOxB\r\nzTyUiTY9r6m7PCXXxzzEOME8PKsKPeCLoTxEAX08CgE/PbKHiDyQIwM9uXu8PHnXtTzlYwI9uEIq\r\nPRNk+zyDA9883I8BPTnKEj3C5Pg81NpUPFMx3TwJItM8+h8lPTjTEz0q31c945eoPBtvCD26LyQ9\r\n7NwHPf49KT00lz49cejlPITg0jyKzro8qozvPJQa6DwRrGM99SfAPHw5dD0r3j09nFXmPBz91zx6\r\n0LI8RtTdPJpizjyQYQU9FCg4PapH3Twx1SY9iy/2PJ2kHD14x7o8zssDPZtowTwKu5w8sHDGPOaV\r\n+DzGK7w8mZOfPDeOijzWMhk9fQkHPXj8Dz1SdqM8qRGMPFwyrTygfNc8MAX+PH0rrTy0wE49vNwp\r\nPcav8zyQkBQ9YFT8PB1p1TzCbWc89AwtPTAZBz1Cefw8U6kEPTLfnTycUwM9SYgOPY2CDT0oqwk9\r\nqpDIPNfveT3OGMc8q2oBPVCUgTxHJ7s8xrvAPDTsDT1Msw49VnfdPAX9ozw+KA49SrkyPTrW+TyJ\r\ndxw9fZAiPbZ9dzz2rPU8hrunPOT5tDxUVsw8ZoXQPJ6EST1dAFo91bO1PKhcCz2dtdg8MNM+PW4I\r\nwTxJsPM8fTUjPYRMxjwA9ko9rMfkPNonPT17mJM8vf2NPNe3BD1QBoI8srAbPfbjqjxhDxs9GSL4\r\nPIlR7Dwqado8VQLFPH84BD1bPsQ8ht2oPNd39Tz8JIY8DJkvPQ887zwQEYo8828VPZ5j3jxIlhk9\r\nIUeUPEtk3TzmQdc8HzOrPDwA6TzOIuU8kL37PNBWlzyL3Qs9HZ76PCnlvjxulbA8oNkKPZwR+zy/\r\nezo92c/cPG75kzx4j+o8TScDPWxxYjzIbUU9JlYZPdhDtDxEKN482Lu6PJkDwjyMfvM8NGwSPep6\r\nlD1C+K88txd4PKR3/DzgFg096yQOPW+7DT2dLaI8C+bGPEu04TzeW/E8teEQPAbuMz0sjZM8j2BN\r\nPOo0AT1ScnA84gZSPDQ8UTzhKk481ixMPH6bTTyawkw8qm1NPN/rTDyy/Ew8daRLPNUNTTz7w008\r\nLZpMPMwRTDxT8Es8mIpJPGZESzyjsks83hpKPMZDSDwkgUk8KVBKPDyySTyefEk8h/hIPDuJSDx5\r\nDUg8rjVJPIjfRjyW7Ec8EEJIPGrSRzwByUc8DNZDPI2fRjxEcUc8QFxGPCMfRDxDfEc8zt9GPBoR\r\nRTzdqkU8h6pFPIAJRDzJkkU8fuBDPB9GRDyAyEQ8GMBDPOwyQjwe9EE8l+dBPH7ZQjwDcUI89OFB\r\nPMKUQTyx+kI8MbFAPIuQQDxKfUA8Gy1BPGCRQjyV3j08ReVAPOlRQTxR10E8JJQ/PMx+QTxb4z88\r\nGLM+PJpXPzzo4D882sA9PBqYPTxfnz48HoE8PGBXPjylET08GCM9PKA+Pzz+jTw8hfs9PGXpPDyo\r\n3To85Eo8PK4FOjzA4Do8R+g7POdyOTwm8Do8+Lg5PNTrOjzxWzo8+Os6PEFBOjxETTk8sew6PEdi\r\nOTxFKjo8bcY4PA80NzxbJDk8Pg85PGhLODz7EzY8hk04PImjNTzRAzg8I9k2PONdODyBGjc8t/g3\r\nPK2BODzqHjc8HOY1PBKsNjy2ZDU87wE2POQ5NzxxqjU8Y/42PIq0NTz4GzU8jHs1PJRANDzzRTQ8\r\n0P4yPKqWMjz8GTU8aVIzPH3GNDyjXzI8AEczPGbbNTwFxzI8veQzPPo6MTwXRTI8QlUzPFh4Mzx2\r\nwzI8YvcxPDPyMTziqzI8WfYxPAIjMTx16zI8x3AxPOkqMTwOfjI8ya0xPHWiMDxk2zA8CK4xPLbd\r\nMDwXaDA8lKAwPNAaMjyLLjE85EAwPFKAMDzUpTA8fTovPNT3LzyW6S88Bj4xPBX7Lzz+7y48LK0w\r\nPHhfLjwAZTA8dM0vPOlFMDzagS48BWYtPL/JLjy9my08ufQuPMy7Ljx3ei48iSsuPDRcLTwx4y08\r\nqIMuPIcYLTy3yys8gQctPA3ULDwKYC48ukItPFImLTyoVC08IBwtPEsgLDx3jCo8JI0sPJXcLDxv\r\n/yo80nMrPBJDLTyeeC08waksPADpKzxhtiw8fhIsPNllKzwonis8OnIsPKM4LDxONSs8O7osPKIs\r\nLTz4cyw8/EYqPAeuKjxMWio88pEqPNh7KzzD0io8BnYqPGZYKjzOASw8hMosPNBELDzlJSo8iKAq\r\nPNU5KzxiiSo8lqArPCckKjxX2Ck8POopPDWlKjx96yk8MwIrPE+cKTxntCg8r+YoPCKVKTwPzSg8\r\nxD8rPLXAKDxwoyk8GY8oPIwPKjzxzSk8Kb4oPJDoKjxPtSk8P7UpPABiJzzF1ig8KFooPDznKTw5\r\nUyk8a5UpPOm3Jzwrfyk8aKEoPIxiJzyO9Ck8T5MoPDq1KTygWCg8UhQpPFUUKDxGeCk8MLgoPKlF\r\nKTzsFig8KbMpPHLMKDyRECs8bvgoPOBaJzwdOCg8ASMqPAXBJzysryo89uspPHydKTw+6yc8eEQo\r\nPJ2hKDzafyo86dooPEBaJzx/Wig8glApPDzKKTxMiig8tz4mPFXOKDyIECk8IqwoPABhJzxSZYxG\r\nCaKWRHnnfkXuaplEHxrTQ84uXkP+4c1CZyShQlNHskLL0L9Ct8IeQsJe20KCZxxC4rUWQkVinEGr\r\nd2VBfpKwQVUeXkKd2OxBV1eeQXb6ZUEGXQxBVh+MQZLHgkGK6zRBUYJ6QRAoTUJZExRCki2jQkZU\r\nv0IgIj1DsE4hQ7IxDEMgCLVAd8elQXG650GIxQVC89QEQwexFkNCB/NC94aMQgVPAULxHAFBlmNq\r\nQUUM70J3zINDPLpLQ6qol0N49WxDA7WjQssGEEOA/CxD5CUYQubuZ0L0prJDNKS9QzDyikOzbExD\r\nJa4PQ76RuEDGWyNCjJMfQ8znn0Mtxo9Dmr8UQ9wdlEL0uklCsGY+Qz6U3UOaOpBDQyH1QbXrlEJ/\r\n5xZBiXWQQ9Kd2UOzGCNDGcMYQzcikEOGKr1DYc8RQVGGtEAGnAlD26XtQ8TsNEObtVBE9R1lRMjJ\r\nvETeJbFEqD6hQ2bwrULifg5DL183Q7rUH0OsGy1DQwztQ30rYETdNQJEP1g1QwwJc0McKwdDJ6AM\r\nRI4RhkNmHLRCGjVtRIGLDkSg4YFEFB7OQ1Nyk0POxKFCqjM2QjWnhEKDB2tDZBsSQ4YWlkNa65VD\r\nMsgNQo5F2UHWxqlCSSQMQxxWqULK6IlBUHm3Q7qQq0MmibJE8L4+ROcK90PQiDtDuH6KQmDzWEL2\r\nV+NCMotpQ8ingUMsxapDVKXLQ2fQKUTyKLhDhkHNQm7a/0KMsHlCjCMDQxoi/EMlRnRD+ZhTQ021\r\nH0NTpchC6JfnQUUoOUISuh5CmP9wQ4LD80PWZQRDEEExQ01pGkMMRm1DC/1FQ/FzN0Kw+8xBzrWH\r\nQnA4PEN+j3dDP4MsQ0juDkMnVK5BJpszQUAWT0JcFApC0HbeQrzJAUOCTNtCpD1nQX446UFeTvRB\r\nWOfdQeQ9pUGMIklA2syBQAcbDEL+ljxCdmc9QkuzKkIRv0JBpg12QKzJDkFTOVlAjLAmQXVmRkE6\r\n7wxBQ3FIQeTuV0HVF71BM1TxQG+sqj8vShFB2t+QPwCDv0C74tlAfMyGQDX1l0GrEuU/f0L9P1iJ\r\nnz/Jsvk/HCYPP+5mYD9Hmhc/MtyPP2J8vD+lRylAEuGdQBzOUEA/2HtAVXNHP9RrIT8QjqE+IcF0\r\nP2lLtj+yAVs/irFjPxrp7T706So/frMWPxL5jD4OWTI+lRRMPjo/oj/APzA/F1PqP+O1nD3fwGA/\r\n9aM9P5EAYz9XUzI+XXBqPl4sjT8E+TM/9JB/P04Chj/RM8w/ZdQkPguJOD7G+6U+idhtPr0xej4H\r\ndwU/hXyBPlf3mz5nlnA+cUGmPm5nTD591s49NkJfPuQiCT4r1Q4+KO0xPnztMD6km2A+5Q65PUgi\r\nAj680Bk+CuSfPTID/j0SYko+eZj9PVIp5z2OIBg+3DhNPv1Imj2QgiU+Kb7aPZNzoD2Ib7s9lX8S\r\nPrO+Fz4AKfI9HE8UPhMs/z33nnE9X65sPfJcqj2RmsE91HsNPgDXwj2iMvU9mzybPXFZnz3NlPU9\r\nU0P8PUDnqD3wSG09IlzRPUbAvz3LvK09ts/oPdX01T0eObA9O6i8PaaYiT14FcM96wQKPtq+qj0h\r\nhAY+kh2gPYOyuT0AU/g9NAiFPZPrMD3C9MU99TnVPRaBVT3iIWY917a4PW0Grz3Y7oY9As/0PXxL\r\nuD0SRCU9TVj1PQzjxD3hnfA9CWnpPaja2D1tNcw9lSSoPUAk0T2kyu49KPpePch2aD0SDX49jgzu\r\nPZf/wT111sY96ATOPWfnoj1Kiew9Pde0PRo5sj2rar89PNbjPXQunj2WdLY9UraGPRJhnD2Erq09\r\nFXt9PVvBgj2hJJo9XEpkPffBXT1sr509VrevPS6AvT3O/Ys9vAGGPexemD1eeYw9epOFPRwPfD1G\r\n5t89wqOTPfj2Bj2MY5w9+zSxPWgz2T0diSg9RTGrPfB1Qj1+WJ89+1R0Peeryj0bNDA9th1EPdpV\r\nlj1uUrQ9AkCbPVXroz0QQnQ9m8x1Pa9szT3567g9KD+hPdDQhT1gpTw9vdI7PX2WbD1g+o89QAGf\r\nPc6YXz1+lWE9mdJnPXJTsT33ft49mRWsPXSYHz7lVDk+k0DuPSh9sz01Hnw9SJ+VPZ4nEz7OzQM9\r\nHzmiPU6+UT0CvJI90JtXPXxrjz262189riswPWf8pD0C1pA9EY5rPRtMgj2iof48YnIOPSldEj0c\r\naxQ9Go1QPVm/Iz04PkE9qteXPQ03LD2zI3Y9R3i+PJOJrD0n+2g9DGotPZdkGj0+zZk90DIgPRGa\r\nXj1N36A8wmyWPc4/mj2QPpM9/FZNPd78Sj2DA349GFXNPW+OWz04xaw9zfMCPi5aUT2G2Bk9rHGu\r\nPTZcIz2XXmE9QsCGPdukJD1tQRI9EZuoPW9S2j3rRVQ9csV9PVxPEj0+exE9eIGBPWDDTD0a4rI9\r\nXeBOPYiL+jxOqjQ9sMKaPeCX6DzdEI09VTYSPSqgYT0uHzM9fw85Pf3gID1Gn3w9T9y9PHRoYj3P\r\nCAs9LD4QPYgXRz1RdCI9jGdZPf5EXT2GsqA9nnaVPXQKiT1EJUU99j5dPUgBYj25I0c9YY5dPUbU\r\nVz38XGI9zBLsPJaEKD3c5Vs9+Tl1Paqcsjz3rh894lAOPXP5az0u4Is9kwXGPJHMHD0aHyM9xNO6\r\nPFJVWj2AJw89HFo7PTj+9TyTp5U8nMgfPRkOcT2E7P081EsuPb7LNj3A9u08U+4aPY7Saj0sKBk9\r\n2hgDPUM7sjxGmBM97dcLPRHZCz3SwB89vHAxPQBfiT0uyGs9p1bnPB5bFj2qeGI9vqVuPb3FKz2U\r\nZO4875/JPK4faD1yMLA8LlvHPBbyAT3bfcg9nsQRPS/HHT3wOCw9LZHdPGVVDz3S1dk87EHNPJSJ\r\nNj2vqbs8JdfHPMQ4wTw8qwo94IuhPEQBfTwKAT89soeIPJAjAz25e7w8ede1POVjAj24Qio9E2T7\r\nPIMD3zzcjwE9OcoSPcLk+DzU2lQ8UzHdPAki0zz6HyU9ONMTPSrfVz3jl6g8G28IPbovJD3s3Ac9\r\n/j0pPTSXPj1x6OU8hODSPIrOujyqjO88lBroPBGsYz31J8A8fDl0PSvePT2cVeY8HP3XPHrQsjxG\r\n1N08mmLOPJBhBT0UKDg9qkfdPDHVJj2LL/Y8naQcPXjHujzOywM9m2jBPAq7nDywcMY85pX4PMYr\r\nvDyZk588N46KPNYyGT19CQc9ePwPPVJ2ozypEYw8XDKtPKB81zwwBf48fSutPLTATj283Ck9xq/z\r\nPJCQFD1gVPw8HWnVPMJtZzz0DC09MBkHPUJ5/DxTqQQ9Mt+dPJxTAz1JiA49jYINPSirCT2qkMg8\r\n1+95Pc4YxzyragE9UJSBPEcnuzzGu8A8NOwNPUyzDj1Wd908Bf2jPD4oDj1KuTI9Otb5PIl3HD19\r\nkCI9tn13PPas9TyGu6c85Pm0PFRWzDxmhdA8noRJPV0AWj3Vs7U8qFwLPZ212Dww0z49bgjBPEmw\r\n8zx9NSM9hEzGPAD2Sj2sx+Q82ic9PXuYkzy9/Y0817cEPVAGgjyysBs99uOqPGEPGz0ZIvg8iVHs\r\nPCpp2jxVAsU8fzgEPVs+xDyG3ag813f1PPwkhjwMmS89DzzvPBARijzzbxU9nmPePEiWGT0hR5Q8\r\nS2TdPOZB1zwfM6s8PADpPM4i5TyQvfs80FaXPIvdCz0dnvo8KeW+PG6VsDyg2Qo9nBH7PL97Oj3Z\r\nz9w8bvmTPHiP6jxNJwM9bHFiPMhtRT0mVhk92EO0PEQo3jzYu7o8mQPCPIx+8zw0bBI96nqUPUL4\r\nrzy3F3g8pHf8POAWDT3rJA49b7sNPZ0tojwL5sY8S7ThPN5b8Ty14RA8Bu4zPSyNkzyPYE086jQB\r\nPVJycDziBlI8NDxRPOEqTjzWLEw8fptNPJrCTDyqbU083+tMPLL8TDx1pEs81Q1NPPvDTTwtmkw8\r\nzBFMPFPwSzyYikk8ZkRLPKOySzzeGko8xkNIPCSBSTwpUEo8PLJJPJ58STyH+Eg8O4lIPHkNSDyu\r\nNUk8iN9GPJbsRzwQQkg8atJHPAHJRzwM1kM8jZ9GPERxRzxAXEY8Ix9EPEN8RzzO30Y8GhFFPN2q\r\nRTyHqkU8gAlEPMmSRTx+4EM8H0ZEPIDIRDwYwEM87DJCPB70QTyX50E8ftlCPANxQjz04UE8wpRB\r\nPLH6QjwxsUA8i5BAPEp9QDwbLUE8YJFCPJXePTxF5UA86VFBPFHXQTwklD88zH5BPFvjPzwYsz48\r\nmlc/POjgPzzawD08Gpg9PF+fPjwegTw8YFc+PKURPTwYIz08oD4/PP6NPDyF+z08Zek8PKjdOjzk\r\nSjw8rgU6PMDgOjxH6Ds853I5PCbwOjz4uDk81Os6PPFbOjz46zo8QUE6PERNOTyx7Do8R2I5PEUq\r\nOjxtxjg8DzQ3PFskOTw+Dzk8aEs4PPsTNjyGTTg8iaM1PNEDODwj2TY84104PIEaNzy3+Dc8rYE4\r\nPOoeNzwc5jU8Eqw2PLZkNTzvATY85Dk3PHGqNTxj/jY8irQ1PPgbNTyMezU8lEA0PPNFNDzQ/jI8\r\nqpYyPPwZNTxpUjM8fcY0PKNfMjwARzM8Zts1PAXHMjy95DM8+joxPBdFMjxCVTM8WHgzPHbDMjxi\r\n9zE8M/IxPOKrMjxZ9jE8AiMxPHXrMjzHcDE86SoxPA5+MjzJrTE8daIwPGTbMDwIrjE8tt0wPBdo\r\nMDyUoDA80BoyPIsuMTzkQDA8UoAwPNSlMDx9Oi881PcvPJbpLzwGPjE8FfsvPP7vLjwsrTA8eF8u\r\nPABlMDx0zS886UUwPNqBLjwFZi08v8kuPL2bLTy59C48zLsuPHd6LjyJKy48NFwtPDHjLTyogy48\r\nhxgtPLfLKzyBBy08DdQsPApgLjy6Qi08UiYtPKhULTwgHC08SyAsPHeMKjwkjSw8ldwsPG//KjzS\r\ncys8EkMtPJ54LTzBqSw8AOkrPGG2LDx+Eiw82WUrPCieKzw6ciw8ozgsPE41Kzw7uiw8oiwtPPhz\r\nLDz8Rio8B64qPExaKjzykSo82HsrPMPSKjwGdio8ZlgqPM4BLDyEyiw80EQsPOUlKjyIoCo81Tkr\r\nPGKJKjyWoCs8JyQqPFfYKTw86ik8NaUqPH3rKTwzAis8T5wpPGe0KDyv5ig8IpUpPA/NKDzEPys8\r\ntcAoPHCjKTwZjyg8jA8qPPHNKTwpvig8kOgqPE+1KTw/tSk8AGInPMXWKDwoWig8POcpPDlTKTxr\r\nlSk86bcnPCt/KTxooSg8jGInPI70KTxPkyg8OrUpPKBYKDxSFCk8VRQoPEZ4KTwwuCg8qUUpPOwW\r\nKDwpsyk8cswoPJEQKzxu+Cg84FonPB04KDwBIyo8BcEnPKyvKjz26yk8fJ0pPD7rJzx4RCg8naEo\r\nPNp/Kjzp2ig8QFonPH9aKDyCUCk8PMopPEyKKDy3PiY8Vc4oPIgQKTwirCg8AGEnPA==",
                                  "noiseTrainingType" : "default"
                                },
                                "metadata" : {
                                  "effectIndex" : "0"
                                }
                              }
                          ],
                          "start" : 15794,
                          "duration" : 6042,
                          "mediaStart" : 0,
                          "mediaDuration" : 6042,
                          "scalar" : 1,
                          "animationTracks" : {

                          }
                        }
,
                    "start" : 15794,
                    "duration" : 6042,
                    "mediaStart" : 0,
                    "mediaDuration" : 6042,
                    "scalar" : 1,
                    "metadata" : {
                      "WinSubProjectDisplayName" : "",
                      "clipSpeedAttribute" : false
                    }
                  },
                  {
                    "id" : 36,
                    "_type" : "VMFile",
                    "src" : 1,
                    "trackNumber" : 0,
                    "attributes" : {
                      "ident" : "end"
                    },
                    "effects" : [

                    ],
                    "start" : 21836,
                    "duration" : 120,
                    "mediaStart" : 0,
                    "mediaDuration" : 120,
                    "scalar" : 1,
                    "metadata" : {
                      "WinSubProjectDisplayName" : "",
                      "clipSpeedAttribute" : false
                    },
                    "animationTracks" : {

                    }
                  }
                ],
                "transitions" : [
                  {
                    "name" : "SlideLeft",
                    "duration" : 15,
                    "trivial" : false,
                    "useAudioPreRoll" : true,
                    "useVisualPreRoll" : true,
                    "leftMedia" : 16,
                    "rightMedia" : 17
                  },
                  {
                    "name" : "SlideLeft",
                    "duration" : 15,
                    "trivial" : false,
                    "useAudioPreRoll" : true,
                    "useVisualPreRoll" : true,
                    "leftMedia" : 20,
                    "rightMedia" : 21
                  },
                  {
                    "name" : "SlideLeft",
                    "duration" : 15,
                    "trivial" : false,
                    "useAudioPreRoll" : true,
                    "useVisualPreRoll" : true,
                    "leftMedia" : 24,
                    "rightMedia" : 25
                  },
                  {
                    "name" : "SlideLeft",
                    "duration" : 15,
                    "trivial" : false,
                    "useAudioPreRoll" : true,
                    "useVisualPreRoll" : true,
                    "leftMedia" : 28,
                    "rightMedia" : 29
                  },
                  {
                    "name" : "SlideLeft",
                    "duration" : 15,
                    "trivial" : false,
                    "useAudioPreRoll" : true,
                    "useVisualPreRoll" : true,
                    "leftMedia" : 32,
                    "rightMedia" : 33
                  }
                ]
              },
              {
                "trackIndex" : 1,
                "medias" : [
                  {
                    "id" : 37,
                    "_type" : "AMFile",
                    "src" : 2,
                    "trackNumber" : 0,
                    "attributes" : {
                      "ident" : "SpringInMyStep-SlientPartner-4126819",
                      "sampleRate" : 44100,
                      "bitDepth" : 0,
                      "gain" : 1.0,
                      "mixToMono" : false
                    },
                      "channelNumber" : "0,1",
                    "parameters" : {
                      "volume" : {
                        "type" : "double",
                        "keyframes" : [
                          {
                            "time" : -1,
                            "value" : 1.0,
                            "duration" : 0
                          },
                          {
                            "time" : 0,
                            "value" : 0.0,
                            "duration" : 0
                          },
                          {
                            "time" : 75,
                            "value" : 0.32967032967033,
                            "duration" : 0
                          }
                        ]
                      }
                    },
                    "effects" : [

                    ],
                    "start" : 0,
                    "duration" : 150,
                    "mediaStart" : 0,
                    "mediaDuration" : 150,
                    "scalar" : 1,
                    "metadata" : {
                      "WinSubProjectDisplayName" : "",
                      "clipSpeedAttribute" : false
                    },
                    "animationTracks" : {

                    }
                  },
                  {
                    "id" : 38,
                    "_type" : "AMFile",
                    "src" : 2,
                    "trackNumber" : 0,
                    "attributes" : {
                      "ident" : "SpringInMyStep-SlientPartner-4126819",
                      "sampleRate" : 44100,
                      "bitDepth" : 0,
                      "gain" : 1.0,
                      "mixToMono" : false
                    },
                      "channelNumber" : "0,1",
                    "parameters" : {
                      "volume" : 0.0439560439560446
                    },
                    "effects" : [

                    ],
                    "start" : 150,
                    "duration" : 1185,
                    "mediaStart" : 150,
                    "mediaDuration" : 1185,
                    "scalar" : 1,
                    "metadata" : {
                      "WinSubProjectDisplayName" : "",
                      "clipSpeedAttribute" : false
                    },
                    "animationTracks" : {

                    }
                  },
                  {
                    "id" : 39,
                    "_type" : "AMFile",
                    "src" : 2,
                    "trackNumber" : 0,
                    "attributes" : {
                      "ident" : "SpringInMyStep-SlientPartner-4126819",
                      "sampleRate" : 44100,
                      "bitDepth" : 0,
                      "gain" : 1.0,
                      "mixToMono" : false
                    },
                      "channelNumber" : "0,1",
                    "parameters" : {
                      "volume" : {
                        "type" : "double",
                        "keyframes" : [
                          {
                            "time" : 0,
                            "value" : 1.0,
                            "duration" : 0
                          },
                          {
                            "time" : 1334,
                            "value" : 1.0,
                            "duration" : 0
                          },
                          {
                            "time" : 1335,
                            "value" : 0.0,
                            "duration" : 0
                          },
                          {
                            "time" : 1372,
                            "value" : 0.307692307692306,
                            "duration" : 0
                          }
                        ]
                      }
                    },
                    "effects" : [

                    ],
                    "start" : 1335,
                    "duration" : 75,
                    "mediaStart" : 1335,
                    "mediaDuration" : 75,
                    "scalar" : 1,
                    "metadata" : {
                      "WinSubProjectDisplayName" : "",
                      "clipSpeedAttribute" : false
                    },
                    "animationTracks" : {

                    }
                  },
                  {
                    "id" : 40,
                    "_type" : "AMFile",
                    "src" : 2,
                    "trackNumber" : 0,
                    "attributes" : {
                      "ident" : "SpringInMyStep-SlientPartner-4126819",
                      "sampleRate" : 44100,
                      "bitDepth" : 0,
                      "gain" : 1.0,
                      "mixToMono" : false
                    },
                      "channelNumber" : "0,1",
                    "parameters" : {
                      "volume" : 0.087912087912086
                    },
                    "effects" : [

                    ],
                    "start" : 1410,
                    "duration" : 1553,
                    "mediaStart" : 1410,
                    "mediaDuration" : 1553,
                    "scalar" : 1,
                    "metadata" : {
                      "WinSubProjectDisplayName" : "",
                      "clipSpeedAttribute" : false
                    },
                    "animationTracks" : {

                    }
                  },
                  {
                    "id" : 41,
                    "_type" : "AMFile",
                    "src" : 2,
                    "trackNumber" : 0,
                    "attributes" : {
                      "ident" : "SpringInMyStep-SlientPartner-4126819",
                      "sampleRate" : 44100,
                      "bitDepth" : 0,
                      "gain" : 1.0,
                      "mixToMono" : false
                    },
                      "channelNumber" : "0,1",
                    "parameters" : {
                      "volume" : {
                        "type" : "double",
                        "keyframes" : [
                          {
                            "time" : 0,
                            "value" : 1.0,
                            "duration" : 0
                          },
                          {
                            "time" : 2962,
                            "value" : 1.0,
                            "duration" : 0
                          },
                          {
                            "time" : 2963,
                            "value" : 0.0,
                            "duration" : 0
                          },
                          {
                            "time" : 3000,
                            "value" : 0.241758241758241,
                            "duration" : 0
                          }
                        ]
                      }
                    },
                    "effects" : [

                    ],
                    "start" : 2963,
                    "duration" : 75,
                    "mediaStart" : 2963,
                    "mediaDuration" : 75,
                    "scalar" : 1,
                    "metadata" : {
                      "WinSubProjectDisplayName" : "",
                      "clipSpeedAttribute" : false
                    },
                    "animationTracks" : {

                    }
                  },
                  {
                    "id" : 42,
                    "_type" : "AMFile",
                    "src" : 2,
                    "trackNumber" : 0,
                    "attributes" : {
                      "ident" : "SpringInMyStep-SlientPartner-4126819",
                      "sampleRate" : 44100,
                      "bitDepth" : 0,
                      "gain" : 1.0,
                      "mixToMono" : false
                    },
                      "channelNumber" : "0,1",
                    "parameters" : {
                      "volume" : 0.087912087912086
                    },
                    "effects" : [

                    ],
                    "start" : 3038,
                    "duration" : 537,
                    "mediaStart" : 3038,
                    "mediaDuration" : 537,
                    "scalar" : 1,
                    "metadata" : {
                      "WinSubProjectDisplayName" : "",
                      "clipSpeedAttribute" : false
                    },
                    "animationTracks" : {

                    }
                  },
                  {
                    "id" : 43,
                    "_type" : "AMFile",
                    "src" : 2,
                    "trackNumber" : 0,
                    "attributes" : {
                      "ident" : "SpringInMyStep-SlientPartner-4126819",
                      "sampleRate" : 44100,
                      "bitDepth" : 0,
                      "gain" : 1.0,
                      "mixToMono" : false
                    },
                      "channelNumber" : "0,1",
                    "parameters" : {
                      "volume" : 0.0659340659340653
                    },
                    "effects" : [

                    ],
                    "start" : 3575,
                    "duration" : 3575,
                    "mediaStart" : 0,
                    "mediaDuration" : 3575,
                    "scalar" : 1,
                    "metadata" : {
                      "WinSubProjectDisplayName" : "",
                      "clipSpeedAttribute" : false
                    },
                    "animationTracks" : {

                    }
                  },
                  {
                    "id" : 44,
                    "_type" : "AMFile",
                    "src" : 2,
                    "trackNumber" : 0,
                    "attributes" : {
                      "ident" : "SpringInMyStep-SlientPartner-4126819",
                      "sampleRate" : 44100,
                      "bitDepth" : 0,
                      "gain" : 1.0,
                      "mixToMono" : false
                    },
                      "channelNumber" : "0,1",
                    "parameters" : {
                      "volume" : 0.0659340659340653
                    },
                    "effects" : [

                    ],
                    "start" : 7150,
                    "duration" : 3575,
                    "mediaStart" : 0,
                    "mediaDuration" : 3575,
                    "scalar" : 1,
                    "metadata" : {
                      "WinSubProjectDisplayName" : "",
                      "clipSpeedAttribute" : false
                    },
                    "animationTracks" : {

                    }
                  },
                  {
                    "id" : 45,
                    "_type" : "AMFile",
                    "src" : 2,
                    "trackNumber" : 0,
                    "attributes" : {
                      "ident" : "SpringInMyStep-SlientPartner-4126819",
                      "sampleRate" : 44100,
                      "bitDepth" : 0,
                      "gain" : 1.0,
                      "mixToMono" : false
                    },
                      "channelNumber" : "0,1",
                    "parameters" : {
                      "volume" : 0.087912087912086
                    },
                    "effects" : [

                    ],
                    "start" : 10725,
                    "duration" : 1040,
                    "mediaStart" : 0,
                    "mediaDuration" : 1040,
                    "scalar" : 1,
                    "metadata" : {
                      "WinSubProjectDisplayName" : "",
                      "clipSpeedAttribute" : false
                    },
                    "animationTracks" : {

                    }
                  },
                  {
                    "id" : 46,
                    "_type" : "AMFile",
                    "src" : 2,
                    "trackNumber" : 0,
                    "attributes" : {
                      "ident" : "SpringInMyStep-SlientPartner-4126819",
                      "sampleRate" : 44100,
                      "bitDepth" : 0,
                      "gain" : 1.0,
                      "mixToMono" : false
                    },
                      "channelNumber" : "0,1",
                    "parameters" : {
                      "volume" : {
                        "type" : "double",
                        "keyframes" : [
                          {
                            "time" : 0,
                            "value" : 1.0,
                            "duration" : 0
                          },
                          {
                            "time" : 1039,
                            "value" : 1.0,
                            "duration" : 0
                          },
                          {
                            "time" : 1040,
                            "value" : 0.0,
                            "duration" : 0
                          },
                          {
                            "time" : 1077,
                            "value" : 0.32967032967033,
                            "duration" : 0
                          }
                        ]
                      }
                    },
                    "effects" : [

                    ],
                    "start" : 11765,
                    "duration" : 75,
                    "mediaStart" : 1040,
                    "mediaDuration" : 75,
                    "scalar" : 1,
                    "metadata" : {
                      "WinSubProjectDisplayName" : "",
                      "clipSpeedAttribute" : false
                    },
                    "animationTracks" : {

                    }
                  },
                  {
                    "id" : 47,
                    "_type" : "AMFile",
                    "src" : 2,
                    "trackNumber" : 0,
                    "attributes" : {
                      "ident" : "SpringInMyStep-SlientPartner-4126819",
                      "sampleRate" : 44100,
                      "bitDepth" : 0,
                      "gain" : 1.0,
                      "mixToMono" : false
                    },
                      "channelNumber" : "0,1",
                    "parameters" : {
                      "volume" : 0.131868131868131
                    },
                    "effects" : [

                    ],
                    "start" : 11840,
                    "duration" : 2460,
                    "mediaStart" : 1115,
                    "mediaDuration" : 2460,
                    "scalar" : 1,
                    "metadata" : {
                      "WinSubProjectDisplayName" : "",
                      "clipSpeedAttribute" : false
                    },
                    "animationTracks" : {

                    }
                  },
                  {
                    "id" : 48,
                    "_type" : "AMFile",
                    "src" : 2,
                    "trackNumber" : 0,
                    "attributes" : {
                      "ident" : "SpringInMyStep-SlientPartner-4126819",
                      "sampleRate" : 44100,
                      "bitDepth" : 0,
                      "gain" : 1.0,
                      "mixToMono" : false
                    },
                      "channelNumber" : "0,1",
                    "parameters" : {
                      "volume" : 0.087912087912086
                    },
                    "effects" : [

                    ],
                    "start" : 14300,
                    "duration" : 1419,
                    "mediaStart" : 0,
                    "mediaDuration" : 1419,
                    "scalar" : 1,
                    "metadata" : {
                      "WinSubProjectDisplayName" : "",
                      "clipSpeedAttribute" : false
                    },
                    "animationTracks" : {

                    }
                  },
                  {
                    "id" : 49,
                    "_type" : "AMFile",
                    "src" : 2,
                    "trackNumber" : 0,
                    "attributes" : {
                      "ident" : "SpringInMyStep-SlientPartner-4126819",
                      "sampleRate" : 44100,
                      "bitDepth" : 0,
                      "gain" : 1.0,
                      "mixToMono" : false
                    },
                      "channelNumber" : "0,1",
                    "parameters" : {
                      "volume" : {
                        "type" : "double",
                        "keyframes" : [
                          {
                            "time" : 0,
                            "value" : 1.0,
                            "duration" : 0
                          },
                          {
                            "time" : 1418,
                            "value" : 1.0,
                            "duration" : 0
                          },
                          {
                            "time" : 1419,
                            "value" : 0.0,
                            "duration" : 0
                          },
                          {
                            "time" : 1456,
                            "value" : 0.35164835164835,
                            "duration" : 0
                          }
                        ]
                      }
                    },
                    "effects" : [

                    ],
                    "start" : 15719,
                    "duration" : 75,
                    "mediaStart" : 1419,
                    "mediaDuration" : 75,
                    "scalar" : 1,
                    "metadata" : {
                      "WinSubProjectDisplayName" : "",
                      "clipSpeedAttribute" : false
                    },
                    "animationTracks" : {

                    }
                  },
                  {
                    "id" : 50,
                    "_type" : "AMFile",
                    "src" : 2,
                    "trackNumber" : 0,
                    "attributes" : {
                      "ident" : "SpringInMyStep-SlientPartner-4126819",
                      "sampleRate" : 44100,
                      "bitDepth" : 0,
                      "gain" : 1.0,
                      "mixToMono" : false
                    },
                      "channelNumber" : "0,1",
                    "parameters" : {
                      "volume" : 0.10989010989011
                    },
                    "effects" : [

                    ],
                    "start" : 15794,
                    "duration" : 2081,
                    "mediaStart" : 1494,
                    "mediaDuration" : 2081,
                    "scalar" : 1,
                    "metadata" : {
                      "WinSubProjectDisplayName" : "",
                      "clipSpeedAttribute" : false
                    },
                    "animationTracks" : {

                    }
                  },
                  {
                    "id" : 51,
                    "_type" : "AMFile",
                    "src" : 2,
                    "trackNumber" : 0,
                    "attributes" : {
                      "ident" : "SpringInMyStep-SlientPartner-4126819",
                      "sampleRate" : 44100,
                      "bitDepth" : 0,
                      "gain" : 1.0,
                      "mixToMono" : false
                    },
                      "channelNumber" : "0,1",
                    "parameters" : {
                      "volume" : 0.0659340659340653
                    },
                    "effects" : [

                    ],
                    "start" : 17875,
                    "duration" : 3575,
                    "mediaStart" : 0,
                    "mediaDuration" : 3575,
                    "scalar" : 1,
                    "metadata" : {
                      "WinSubProjectDisplayName" : "",
                      "clipSpeedAttribute" : false
                    },
                    "animationTracks" : {

                    }
                  },
                  {
                    "id" : 52,
                    "_type" : "AMFile",
                    "src" : 2,
                    "trackNumber" : 0,
                    "attributes" : {
                      "ident" : "SpringInMyStep-SlientPartner-4126819",
                      "sampleRate" : 44100,
                      "bitDepth" : 0,
                      "gain" : 1.0,
                      "mixToMono" : false
                    },
                      "channelNumber" : "0,1",
                    "parameters" : {
                      "volume" : 0.087912087912086
                    },
                    "effects" : [

                    ],
                    "start" : 21450,
                    "duration" : 386,
                    "mediaStart" : 0,
                    "mediaDuration" : 386,
                    "scalar" : 1,
                    "metadata" : {
                      "WinSubProjectDisplayName" : "",
                      "clipSpeedAttribute" : false
                    },
                    "animationTracks" : {

                    }
                  },
                  {
                    "id" : 53,
                    "_type" : "AMFile",
                    "src" : 2,
                    "trackNumber" : 0,
                    "attributes" : {
                      "ident" : "SpringInMyStep-SlientPartner-4126819",
                      "sampleRate" : 44100,
                      "bitDepth" : 0,
                      "gain" : 1.0,
                      "mixToMono" : false
                    },
                      "channelNumber" : "0,1",
                    "parameters" : {
                      "volume" : {
                        "type" : "double",
                        "keyframes" : [
                          {
                            "time" : 0,
                            "value" : 0.35164835164835,
                            "duration" : 0
                          },
                          {
                            "time" : 446,
                            "value" : 0.35164835164835,
                            "duration" : 0
                          },
                          {
                            "time" : 506,
                            "value" : 0.0,
                            "duration" : 0
                          },
                          {
                            "time" : 507,
                            "value" : 1.0,
                            "duration" : 0
                          }
                        ]
                      }
                    },
                    "effects" : [

                    ],
                    "start" : 21836,
                    "duration" : 120,
                    "mediaStart" : 386,
                    "mediaDuration" : 120,
                    "scalar" : 1,
                    "metadata" : {
                      "WinSubProjectDisplayName" : "",
                      "clipSpeedAttribute" : false
                    },
                    "animationTracks" : {

                    }
                  }
                ]
              },
              {
                "trackIndex" : 2,
                "medias" : [
                ]
              }
            ]
          }
        }
      ]
    },
    "trackAttributes" : [
      {
        "ident" : "",
        "audioMuted" : false,
        "videoHidden" : false,
        "metadata" : {
          "IsLocked" : "False",
          "WinTrackHeight" : "56"
        }
      },
      {
        "ident" : "",
        "audioMuted" : false,
        "videoHidden" : false,
        "metadata" : {
          "IsLocked" : "False",
          "WinTrackHeight" : "56"
        }
      },
      {
        "ident" : "",
        "audioMuted" : false,
        "videoHidden" : false,
        "metadata" : {
          "IsLocked" : "False",
          "WinTrackHeight" : "56"
        }
      }
    ],
    "captionAttributes" : {
      "enabled" : true,
      "fontName" : "Arial",
      "fontSize" : 64,
      "backgroundColor" : [ 0, 0, 0, 191],
      "foregroundColor" : [ 255, 255, 255, 255],
      "lang" : "en",
      "alignment" : 0,
      "defaultFontSize" : true,
      "opacity" : 0.5,
      "backgroundEnabled" : true,
      "backgroundOnlyAroundText" : true
    },
    "backgroundColor" : [ 0, 0, 0, 255]
  },
  "metadata" : {
    "AutoSaveFile" : "C:\\Users\\Cong_minh\\AppData\\Local\\TechSmith\\Camtasia Studio\\9.0\\Auto-Saves\\Untitled Project54fdb2b.autosave.tscproj",
    "CanvasZoom" : 47,
    "Date" : "2022-06-01 02:01:51 PM",
    "IsAutoSave" : "0",
    "Language" : "ENU",
    "ProfileName" : "MP4 only (up to 1080p)",
    "ProjectDimensionsChanged" : "1",
    "audioNarrationNotes" : "",
    "calloutStyle" : "Basic",
    "canvasDetached" : "False",
    "canvasPositionHeight" : "0",
    "canvasPositionLeft" : "0",
    "canvasPositionTop" : "0",
    "canvasPositionWidth" : "0"
  }
}
